<?xml version="1.0" encoding="utf-8"?>
<!-- Generator: Adobe Illustrator 22.0.1, SVG Export Plug-In . SVG Version: 6.00 Build 0)  -->
<svg version="1.1" id="Layer_2_1_" xmlns="http://www.w3.org/2000/svg" xmlns:xlink="http://www.w3.org/1999/xlink" x="0px" y="0px"
	 viewBox="0 0 1080 1080" style="enable-background:new 0 0 1080 1080;" xml:space="preserve">
<style type="text/css">
	.st0{fill:#00FF00;}
	.st1{fill:none;}
	.st2{font-family:'TimesNewRomanPSMT';}
	.st3{font-size:0.1px;}
</style>
<title>Seal Final</title>
<circle class="st0" cx="540" cy="540" r="540"/>
<circle cx="540" cy="540" r="519.5"/>
<g>
	<path class="st0" d="M326.8,960.5c-1.4,8.7-1.6,19.1,8.8,23.9c9.2,4.2,16.5-0.3,19.5-6.9c3.9-8.5,0.1-15.2-7.8-24.6
		c-8.1-9.8-16.4-20.5-10.4-33.7c5.9-12.9,21.6-18.2,38.4-10.5c4.2,1.9,8.1,4.4,11.4,7.6c1.8,1.6,3.4,3.4,4.9,5.3
		c-0.3,2.8-3.4,14.5-5.4,20.7l-4.2-0.6c1.4-8.6,1.2-23.9-11.4-29.6c-9-4.1-16.7-1-20.7,7.7s0.7,15.8,7.9,25
		c6.6,8.2,15.6,19.5,9.6,32.8c-5.5,12-19.7,17.5-35.7,10.2c-5.4-2.6-10.3-6-14.6-10.1c1.5-4.5,3.1-9.7,5.6-18.1L326.8,960.5z"/>
	<path class="st0" d="M272.8,875.4c3.5-3.6,12.4-12.3,15.8-15.2l55.2,36.7l-2.1,3.2c-10.6-6-12.3-5.6-18.3,3.4l-28.7,43.1
		c-6.7,10.1-5.9,11,2.3,17.6l-2.2,3.3l-51-33.9c1.8-3,6.2-10.5,9.8-17l3.8,1.8c-1.6,3.8-2.5,7.9-2.7,12c0.1,3.5,2.6,6.3,10.4,11.5
		l8.4,5.6c3.7,2.5,4.1,2.3,6.3-1l16.4-24.7l-10.3-6.9c-10.1-6.7-11.4-6.3-17.8,0.2l-3.4-2.3l14.4-21.6l3.4,2.3
		c-3.8,9.1-3.4,10.3,6.5,16.8l10.3,6.9l13.5-20.2c3.5-5.2,4.5-8.1,3.3-10.8s-5.5-5.5-10.6-8.9c-8.2-5.5-12.1-7-16.5-5.8
		c-4.6,1.6-8.9,3.9-12.8,6.8L272.8,875.4z"/>
	<path class="st0" d="M244.6,818.7l-2.7,2.7c-6.8-5.1-8.4-5.1-10.9-0.1s-5.3,11.4-8.7,18.8l20.5,20.5c5.9-2.7,10.8-5,15.7-7.5
		c7.7-3.6,8.1-5.5,1.6-13.5l2.7-2.7l21,21.1l-2.7,2.7c-7.1-5.3-9.1-6-20.8-1.1l-68.9,28.6l-4.1-2.5c10.4-22.7,21-45.4,31.1-68.1
		c5.2-11.3,4.9-13.7-0.7-20.5l2.7-2.7L244.6,818.7z M204.6,877.3l0.2,0.2c10.8-4.6,21.8-9.6,32.2-14.3l-17.5-17.5L204.6,877.3z"/>
	<path class="st0" d="M165.1,747.8c4.3-1.8,16.4-6.5,20.6-7.6l34.6,51.9l-3.2,2.1c-7.1-9.2-8.5-9.7-18.1-3.2l-43.2,28.7
		c-9.6,6.4-9.7,7.6-4.1,17.3l-3.3,2.2L128,808.7l3.3-2.2c6.5,8.5,7.8,9.1,17.4,2.7l42.8-28.5c6-4,7.8-5.9,7.5-8.8s-2.6-7-5.5-11.4
		c-4-5.9-7.3-9.5-11.9-10.1c-3.5-0.7-8.5-0.4-15,1.2L165.1,747.8z"/>
	<path class="st0" d="M77.6,447.5c-8.8,1-18.9,3.6-20.6,14.9c-1.6,10,4.7,15.8,11.9,17c9.2,1.5,14.6-4,21.6-14.1
		c7.3-10.5,15.3-21.3,29.7-19c14,2.2,23.3,15.9,20.4,34.1c-0.7,4.5-2.1,8.9-4.3,13c-1.1,2.2-2.4,4.2-3.8,6.2
		c-2.7,0.5-14.9,0.6-21.4,0.4l-0.5-4.2c8.7-0.9,23.3-5.3,25.5-18.9c1.5-9.7-3.5-16.4-12.9-17.9s-15,4.9-22,14.3
		c-6.1,8.5-14.6,20.3-29,18c-13-2-22.2-14.2-19.4-31.7c1.1-5.9,3-11.6,5.8-16.8c4.7,0.2,10.2,0.4,18.9,0.6L77.6,447.5z"/>
	<path class="st0" d="M145.2,372.7c4.4,2.4,15.2,8.7,18.9,11.1l-20.7,63l-3.6-1.2c2.9-11.9,2.1-13.4-8.2-16.8l-49.2-16.1
		C71,409,70.3,410,66.1,419.6l-3.8-1.2l19.1-58.2c3.3,0.9,11.8,3.1,19,4.9l-0.8,4.1c-4.1-0.5-8.3-0.3-12.3,0.6
		c-3.4,1-5.4,4.2-8.3,13.1l-3.1,9.5c-1.4,4.2-1.1,4.6,2.7,5.8l28.2,9.2l3.9-11.8c3.8-11.5,3-12.7-4.9-17.1l1.3-3.9l24.6,8.1
		l-1.3,3.9c-9.8-1.2-10.8-0.5-14.5,10.8l-3.9,11.8l23.1,7.6c5.9,1.9,9,2.2,11.3,0.3s3.9-6.8,5.8-12.6c3.1-9.4,3.5-13.5,1.2-17.5
		c-2.8-4-6.1-7.5-10-10.5L145.2,372.7z"/>
	<path class="st0" d="M141.7,254.3c-3.4,6.7-3.7,10.3,1.2,13.8c3.4,2.5,8.4,5.8,19.1,12l45.8,26.4l-2.2,3.8l-89.3,17l-0.1,0.2
		l27.9,16.2c6.4,3.8,13,7.2,19.7,10.3c6.3,2.9,9.2,1,14.5-6.7l3.3,1.9l-16.2,28l-3.3-1.9c3.4-7,3.6-10.8-1.8-14.7
		c-3.3-2.5-8.4-6.1-19-12.2l-24.6-14.2c-8.4-4.8-9.2-4.8-13.2-4.3c-4.2,0.8-6.6,2.8-10.2,8l-3.4-2l10.4-18l85.3-17.2l0.2-0.3
		L159.1,285c-6.3-3.8-12.9-7.2-19.5-10.2c-5.7-2.6-8.8-0.7-14,7.5l-3.4-2l16.1-27.9L141.7,254.3z"/>
	<path class="st0" d="M247.6,258.2l-2.8-2.6c4.8-7,4.7-8.7-0.4-10.9s-11.7-4.8-19.2-7.8l-19.5,21.4c3,5.8,5.5,10.5,8.3,15.4
		c4,7.5,5.9,7.8,13.5,1l2.8,2.6l-20.1,22l-2.8-2.6c4.9-7.4,5.5-9.4,0.1-20.9l-31.8-67.4l2.3-4.3c23.1,9.4,46.3,18.8,69.5,27.8
		c11.5,4.6,13.9,4.2,20.5-1.6l2.8,2.6L247.6,258.2z M187.1,221l-0.2,0.2c5.1,10.6,10.6,21.3,15.8,31.5l16.7-18.3L187.1,221z"/>
	<path class="st0" d="M285.9,142.4c-5.1-4.4-8.4-6.4-11.1-7.1c-3.6-1.1-6.1-0.5-14.4,5.7l-7.4,5.5l38.6,51.5
		c6.3,8.4,8.1,8.9,18.9,1.9l2.3,3l-32,24l-2.3-3c9.4-8.1,9.5-9.9,3.2-18.4L243.1,154l-6.3,4.7c-9.4,7-10.9,9.7-10.6,13.1
		c0,2.8,1.4,6.6,3.7,12.7l-3.3,2.4c-4.6-7.3-9.4-14.6-13.6-20.7l2.3-1.7c3.6,1.5,5,0.4,8.1-1.9l43.8-32.8c3-2.2,3.5-3.6,3.6-6.9
		l2.3-1.7c3.6,4.8,10.3,12.6,15.6,18.6L285.9,142.4z"/>
	<path class="st0" d="M384.7,140.4c1.4,4.9,4.4,17,5.2,21.3l-59.6,29.1l-1.7-3.4c10.6-6.2,11.1-7.8,6.3-17.6l-22.7-46.5
		c-5.3-10.9-6.5-10.7-16.3-6.9l-1.7-3.6l55-26.9c1.7,3,6,10.6,9.7,17.1l-3.5,2.3c-2.5-3.3-5.5-6.1-9-8.4c-3-1.7-6.8-0.9-15.1,3.2
		l-9,4.4c-4,1.9-4.1,2.4-2.3,6l13,26.6l11.1-5.5c10.9-5.3,11.2-6.7,8.8-15.5l3.6-1.8l11.4,23.3l-3.6,1.8c-5.9-7.9-7.1-8.1-17.8-2.9
		l-11.1,5.4l10.7,21.9c2.7,5.6,4.7,8,7.7,8.3s7.6-2,13.1-4.7c8.9-4.3,12.1-6.9,13.4-11.4c1-4.8,1.2-9.6,0.6-14.5L384.7,140.4z"/>
	<path class="st0" d="M720.1,104c0.7-6.7,0.4-10.5-0.5-13.2c-1.2-3.6-3.1-5.3-12.9-8.5l-8.7-2.8l-20.1,61.2
		c-3.3,10-2.6,11.8,9.3,16.6l-1.2,3.6l-38-12.5l1.2-3.6c12,3.1,13.6,2.1,16.9-8l20.1-61.2l-7.5-2.5c-11.2-3.7-14.2-3.3-16.8-1.3
		c-2.3,1.6-4.7,4.9-8.2,10.3l-3.9-1.3c3.3-8,6.6-16.1,9.2-23l2.8,0.9c0.8,3.8,2.5,4.3,6.3,5.6l52,17.1c3.5,1.2,5,0.8,7.7-1l2.8,0.9
		c-1.9,5.8-4.4,15.7-6.3,23.4L720.1,104z"/>
	<path class="st0" d="M776.7,208.9c-1.4-0.8-2.7-1.7-4-2.6c-9.3-5.8-12.7-11.1-13.9-21.7c-0.9-7.9-0.8-17-1.2-24.5
		c-0.3-4.5-1.5-7.1-7.6-10.5l-3.3-1.9l-10.1,17.9c-5.5,9.7-4.8,11.2,4.2,17.3l-1.9,3.3l-31.9-18l1.9-3.3c10,4.6,11.5,4.3,17-5.3
		l25.7-45.6c5.5-9.8,4.9-11-3.9-16.8l2-3.5l30.1,17c8.9,5,14,9.3,16.8,14.8c3.1,5.7,3.2,12.5-0.7,19.5c-5.6,10-15.5,12.3-25.9,11.1
		c-0.1,4.9,0.5,15.2,1,22.5c0.8,8.4,1.5,13.1,2.7,17.5c1.1,5.1,3,7.8,5.3,9.9L776.7,208.9z M754.1,146.8c5.9,3.3,10.4,4.6,14.7,3.9
		c6.4-0.9,10.8-4.4,14.3-10.6c7-12.3,1.4-21.5-7.3-26.4c-3.5-2-5.7-2.6-6.9-2.4s-2.4,1.3-4,4.3l-16,28.3L754.1,146.8z"/>
	<path class="st0" d="M776.8,209.8l2.3-3c9.2,6.2,10.6,6.3,17.6-2.7l32.2-41c7.1-9,6.7-10.4-1.5-17.8l2.5-3.1l29,22.8l-2.5,3.1
		c-9-6.2-10.5-6.3-17.6,2.7l-32.2,41c-7,8.9-6.6,10.3,1.5,17.7l-2.3,3L776.8,209.8z"/>
	<path class="st0" d="M935.4,250.2c-5.3-5.3-8.6-6.7-13.5-3.2c-3.5,2.5-8.1,6.2-17.3,14.4l-39.3,35.3l-2.9-3.2l11.6-90.1l-0.1-0.1
		l-24.1,21.5c-5.6,4.9-10.9,10.1-16,15.5c-4.7,5.1-3.8,8.4,1.8,15.8l-2.8,2.5l-21.6-24.1l2.8-2.5c5.6,5.4,9.2,6.8,14.5,2.9
		c3.5-2.4,8.5-6.1,17.5-14.3l21.1-18.9c7.2-6.4,7.4-7.3,8.2-11.2c0.5-4.3-0.6-7.1-4.5-12.1l3-2.6l13.9,15.5l-10.2,86.4l0.2,0.3
		l22.9-20.6c5.5-4.8,10.8-10,15.8-15.4c4.2-4.6,3.4-8.1-2.7-15.6l3-2.6l21.5,24L935.4,250.2z"/>
	<path class="st0" d="M874.6,309.5l3.2-2c6.5,8.9,7.8,9.5,17.5,3.5l44.3-27.5c9.7-6.1,9.8-7.5,4.6-17.2l3.4-2.1l19.5,31.3l-3.4,2.1
		c-6.4-8.9-7.7-9.5-17.4-3.4L902,321.6c-9.7,6-9.7,7.4-4.7,17.1l-3.2,2L874.6,309.5z"/>
	<path class="st0" d="M986.3,387.1c5.5-3.9,8.2-6.6,9.6-9.1c1.9-3.3,1.9-5.8-2.1-15.3l-3.6-8.5l-59.2,25.3
		c-9.6,4.1-10.6,5.8-6.3,17.9l-3.5,1.5l-15.7-36.8l3.5-1.5c5.6,11.1,7.4,11.6,17.1,7.4l59.2-25.3l-3.1-7.2
		c-4.6-10.8-6.9-12.9-10.2-13.4c-2.8-0.7-6.8-0.2-13.2,0.6l-1.6-3.7c8.1-2.8,16.5-5.7,23.3-8.3l1.1,2.7c-2.3,3.1-1.6,4.7,0,8.4
		l21.5,50.3c1.5,3.4,2.7,4.3,5.8,5.2l1.1,2.7c-5.6,2.4-14.7,7.1-21.7,10.8L986.3,387.1z"/>
	<path class="st0" d="M1026.7,485.9c-2.8-9-4.8-10.5-13.8-14c-10-4.2-17.9-7-31-11.1c-3.8-1.3-5.4-1.3-9-0.6l-17,3.4
		c-11.1,2.2-11.9,3.4-10.3,16l-3.7,0.8l-7.7-38.5l3.8-0.8c3.1,11.5,4.3,12.5,15.5,10.3L970,448c2.8-0.5,3.8-1.4,7.3-4.4
		c6.5-5.7,14-12.3,24.9-22.3c7.7-7,9-9,8.1-17l3.9-0.8l6.6,32.9l-3.9,0.8c-3.2-9.3-4.7-8.5-8.5-5.3c-8.8,7.5-18.1,16.1-26.8,23.8
		c9.3,3.1,23.8,7.9,32.3,9.9c6.6,1.6,7.8,0.9,6.8-9.5l3.9-0.8l6,29.9L1026.7,485.9z"/>
	<path class="st0" d="M1009,589.3c8.6-1.8,18.4-5.3,19.2-16.7c0.6-10.1-6.2-15.3-13.4-15.8c-9.3-0.6-14.2,5.3-20.2,16
		c-6.3,11.1-13.3,22.6-27.8,21.7c-14.2-0.9-24.7-13.7-23.5-32.1c0.3-4.6,1.3-9.1,3-13.4c0.9-2.2,2-4.4,3.2-6.5
		c2.7-0.7,14.8-2,21.2-2.4l0.9,4.1c-8.5,1.7-22.7,7.4-23.6,21.2c-0.6,9.8,5,16,14.5,16.6s14.5-6.3,20.6-16.3
		c5.3-9.1,12.7-21.5,27.2-20.6c13.2,0.8,23.4,12.2,22.3,29.8c-0.5,5.9-2,11.8-4.3,17.3c-4.7,0.2-10.2,0.5-18.9,1.2L1009,589.3z"/>
	<path class="st0" d="M945.1,686.2c-5.7-3.3-14.9-9.4-18.4-12.7c0.1-4.1,0.2-16.3,2.6-26.1c8.5-33.8,34.6-43.3,54.8-38.2
		c27,6.8,39.2,33,31.6,63.4c-2.8,11.2-8.3,19.9-9.8,23.4c-7.5-0.8-13.3-1.2-20.8-2.2l0.1-4.2c15.1,0,22.9-7.4,26.5-21.7
		c5.6-22.3-9.5-38.8-28.5-43.6c-24.2-6.1-44,4.7-49.2,25.3c-3.4,13.6,2,22.8,13.5,33.1L945.1,686.2z"/>
	<path class="st0" d="M951.9,805.7c4.3-10.4,4.3-11.6-5.7-16.8l-46.8-24c-10-5.1-11.1-4.4-17,5.1l-3.4-1.7l17.1-33.3l3.4,1.7
		c-4.5,10.8-4.4,12.1,5.6,17.2l23,11.8l21.2-41.2l-23-11.8c-9.9-5.1-11.1-4.5-17,5.1l-3.4-1.7l16.8-32.7l3.3,1.8
		c-4.2,10.1-4,11.3,6,16.4l46.8,24c10,5.1,11,4.5,16.9-5l3.5,1.8l-16.6,32.4l-3.5-1.8c4-9.7,3.9-11-6-16.1l-18.5-9.5l-21.1,41.1
		l18.5,9.5c9.9,5.1,11,4.4,16.7-4.7l3.5,1.8l-16.7,32.5L951.9,805.7z"/>
	<path class="st0" d="M912.4,864.3c-15.5,18-42.7,22.9-62.8,5.5c-21.6-18.7-20.9-46.4-4.1-65.8c16.6-19.2,44-22.2,63.3-5.6
		C926.9,814.2,931.6,842.1,912.4,864.3L912.4,864.3z M910.6,858.8c9.9-11.5,10-30.5-8.9-46.9c-18.4-15.9-41.6-17-54.3-2.4
		c-9.9,11.5-9.9,29.9,9.4,46.7C877.8,874.4,898.9,872.4,910.6,858.8L910.6,858.8z"/>
	<path class="st0" d="M821.5,945.7c-19.5,13.6-47,11.6-62.2-10.1c-16.3-23.4-8.8-50.1,12.3-64.8c20.8-14.5,48.1-10.7,62.7,10.2
		C847.9,900.7,845.7,928.9,821.5,945.7L821.5,945.7z M821.1,939.9c12.5-8.7,17.3-27.1,3-47.6c-13.9-19.9-36.1-26.8-52.1-15.7
		c-12.5,8.7-17,26.5-2.3,47.5C785.5,946.9,806.5,950.2,821.1,939.9L821.1,939.9z"/>
	<path class="st0" d="M676.3,946.3c-1-4.5-3.4-17.3-3.8-21.6l57.3-24.6l1.5,3.5c-10.3,5.3-11,6.6-6.5,17.2l20.5,47.7
		c4.5,10.5,5.7,10.9,16.3,7.2l1.6,3.7l-33.6,14.4l-1.6-3.7c9.5-4.9,10.4-6,5.8-16.7l-20.3-47.2c-2.8-6.6-4.4-8.7-7.3-9
		s-7.3,1.3-12.2,3.4c-6.6,2.8-10.6,5.5-12.1,9.8c-1.3,3.3-1.9,8.3-1.5,15L676.3,946.3z"/>
</g>
<g>
	<path class="st0" d="M425.1,87.1c10.3-2.6,21.5,2.6,24.3,14c3.1,12.3-4.3,22.2-15.4,25c-11.1,2.8-21.8-3.1-24.5-14.1
		C406.9,101.7,412.3,90.3,425.1,87.1L425.1,87.1z M424.3,89.5c-6.6,1.7-11.5,8.6-8.8,19.3c2.6,10.5,10.8,16.8,19.3,14.7
		c6.6-1.7,11.3-8.4,8.5-19.4C440.3,92.2,432.1,87.6,424.3,89.5L424.3,89.5z"/>
	<path class="st0" d="M478.9,86.9c-0.5-1.7-1.4-3.2-2.5-4.4c-1.3-1.5-2.6-1.8-7.1-1.1l-4.3,0.7c-1.9,0.3-2,0.5-1.7,2.2l2.2,13.6
		l6-0.9c5.5-0.9,5.7-1.5,5.9-5.4l1.8-0.3l1.8,11.4l-1.8,0.3c-1.4-3.9-1.8-4.5-7.2-3.7l-6,0.9l1.6,10.1c0.8,5.2,1.4,5.4,6.9,5
		l0.3,1.7l-16.8,2.7l-0.3-1.7c4.7-1.1,5.1-1.6,4.3-6.8l-3.6-22.7c-0.8-5.1-1.4-5.3-6-4.9l-0.3-1.8l26.7-4.2c0.4,2.1,1.3,5.8,2,8.6
		L478.9,86.9z"/>
	<path class="st0" d="M535.5,83.2c-0.8-2.9-1.5-4.4-2.3-5.4c-1.1-1.3-2.1-1.7-6.7-1.5l-4.1,0.2l1.2,28.6c0.2,4.7,0.8,5.3,6.5,5.4
		l0.1,1.7l-17.8,0.7l-0.1-1.7c5.5-0.6,6-1.3,5.8-6l-1.2-28.6l-3.5,0.2c-5.2,0.2-6.5,0.8-7.2,2.1c-0.7,1-1.2,2.8-1.8,5.6l-1.8,0.1
		c0.1-3.8,0.3-7.7,0.2-11l1.3-0.1c1,1.4,1.7,1.4,3.5,1.3l24.4-1c1.2,0.1,2.4-0.5,3.1-1.5l1.3-0.1c0.1,2.7,0.6,7.2,1,10.7L535.5,83.2
		z"/>
	<path class="st0" d="M586,77.6c-5,0.1-5.5,0.4-5.8,5.3l-1.2,23.3c-0.3,5,0.2,5.3,5.2,6L584,114l-16.7-0.9l0.1-1.7
		c5.2-0.1,5.7-0.4,6-5.4l0.6-11.4l-20.7-1.2l-0.6,11.5c-0.3,4.9,0.2,5.3,5.2,6l-0.1,1.7l-16.4-0.9l0.1-1.7c4.9-0.1,5.3-0.4,5.6-5.4
		l1.3-23.3c0.3-5-0.2-5.3-5.1-6l0.1-1.8l16.2,0.9l-0.1,1.8c-4.7,0.1-5.2,0.4-5.5,5.4l-0.5,9.2l20.7,1.2l0.5-9.2
		c0.3-4.9-0.2-5.3-5-5.9l0.1-1.8l16.3,0.9L586,77.6z"/>
	<path class="st0" d="M619.7,109.9c-0.7,2.1-2.7,7.3-3.5,9.1l-29.3-4.4l0.3-1.7c5.5,0.4,6-0.1,6.8-4.8l3.4-22.8
		c0.8-5.3,0.3-5.6-4.3-6.7l0.3-1.8l27,4.1c-0.2,1.5-0.5,5.4-0.7,8.7h-1.9c-0.1-1.8-0.5-3.6-1.2-5.3c-0.7-1.4-2.3-2-6.4-2.7l-4.4-0.7
		c-2-0.3-2.1-0.2-2.4,1.6l-2,13l5.5,0.8c5.3,0.8,5.8,0.4,7.2-3.4l1.8,0.3l-1.7,11.4l-1.8-0.3c-0.2-4.4-0.6-4.8-5.8-5.5l-5.4-0.8
		l-1.6,10.7c-0.4,2.7-0.3,4.1,0.7,5s3.3,1.2,6,1.6c4.3,0.7,6.2,0.5,7.8-0.8c1.6-1.5,2.9-3.2,3.9-5.2L619.7,109.9z"/>
</g>
<circle class="st0" cx="540" cy="540" r="378"/>
<path d="M208.9,595.6l75.5-68.8l-3.5-3.5c-2.8-2.8-4.4-6.5-4.7-10.4c-0.1-0.1-0.3-0.1-0.4-0.2l-14.2-8.9c-1.9-2.3-1.8-5.7,0.3-7.9
	l24.6-24.7c2.2-2.1,5.6-2.2,7.9-0.3l8.9,14.2c0.1,0.1,0.1,0.3,0.2,0.4c3.9,0.2,7.6,1.9,10.4,4.7l13.4,13.5c2.8,2.8,4.4,6.5,4.6,10.4
	c0.1,0.1,0.3,0.1,0.4,0.2l14.2,8.9c1.9,2.3,1.8,5.7-0.3,7.9l-24.6,24.7c-2.2,2.1-5.6,2.2-7.9,0.3l-8.9-14.2
	c-0.1-0.1-0.1-0.3-0.2-0.4c-3.9-0.2-7.6-1.9-10.4-4.7l-3.9-3.9l-68.6,75.7c-2,2.2-5,2.5-6.8,0.8l-6.9-7
	C206.4,600.6,206.7,597.6,208.9,595.6z"/>
<path d="M744.6,486.1c0,0.1-0.1,3-0.1,3v2.5l-5,1H735v88.2h4c4.9,0,17,0.4,18.6,0.6c0.7,0.1,1.4,0.1,2.1,0.2c0.5,0,1.8,0.1,2.9,0.3
	s2.9,0.4,4.1,0.5s2.7,0.3,3.4,0.5l2.9,0.5c2.1,0.3,3.4,0.6,7,1.4c1.2,0.3,2.6,0.7,3.5,0.9l1.5,0.5c1.2,0.3,4,1.4,5.2,1.9
	c3.6,1.5,7.3,4,8.7,5.7l0.5,0.6h9.1l0.6-0.6c1.1-1.1,2.3-2.1,3.6-3c3.2-1.9,6.7-3.5,10.3-4.5l1.5-0.5c1.1-0.3,3.9-1,5.5-1.4
	c2.9-0.6,5-1,6.8-1.3c0.3,0,0.9-0.1,1.5-0.2s2-0.3,3.1-0.4l3.9-0.5c1-0.1,2.2-0.2,2.7-0.2s1.5-0.1,2.2-0.2
	c1.8-0.2,13.7-0.6,18.7-0.6h4.2v-89.2l-5.5,1h-5.1l-0.1-3.6l-0.1-3.1h-5.3c-8.3,0.1-16.5,0.8-24.7,2.1c-0.5,0.1-1,0.2-1.6,0.2
	c-0.4,0-0.8,0.1-1.2,0.2c-0.4,0.1-1.4,0.3-2.1,0.5s-1.7,0.4-2.2,0.5c-1.4,0.4-2.5,0.7-3.4,0.9s-3.8,1.2-4.4,1.4l-1.1,0.4
	c-0.9,0.4-1.3,0.5-3.5,1.5c-3.1,1.4-5.9,3.3-8.4,5.7c-0.3,0.4-0.7,0.6-1.1,0.9c-0.5-0.3-0.9-0.6-1.2-1c-1.5-1.5-3.2-2.8-5.1-3.9
	c-2.1-1.2-4.3-2.3-6.6-3.2l-1.1-0.4c-1-0.4-4.3-1.4-6.1-1.9l-1.7-0.5c-0.3-0.1-0.7-0.2-1-0.2c-0.4,0-0.8-0.1-1.2-0.2
	c-6.6-1.7-17.7-2.8-29.2-3C745.6,485.9,744.7,485.9,744.6,486.1z M758,491.3c1.3,0.1,3.2,0.2,4.3,0.3c3.1,0.2,6.1,0.5,9.1,1
	c2.7,0.4,4.3,0.7,5.4,0.9c2.4,0.5,4.7,1,5.9,1.4c2.6,0.8,3.8,1.1,5,1.6c0.5,0.2,1,0.4,1.2,0.4c0.4,0.1,2.9,1.3,3.5,1.6
	c2.1,1,3.9,2.3,5.6,3.8c0.6,0.5,1.1,1.1,1.6,1.8l0.4,0.7v36c0,30.7,0,36-0.2,36.1c-0.5-0.1-0.9-0.3-1.3-0.6
	c-1.9-1.2-3.9-2.2-5.9-3.1c-1.9-0.8-3.8-1.5-5.8-2.1c-2.7-0.9-5.4-1.6-8.2-2.1c-0.7-0.2-1.5-0.3-1.8-0.4c-0.4-0.1-0.8-0.2-1.2-0.2
	c-0.4,0-1.3-0.2-2.1-0.3c-3-0.5-8.4-1.2-9.2-1.2c-0.4,0-1.8-0.1-3.1-0.2s-4.5-0.3-7-0.4c-1.6,0-3.3-0.1-4.9-0.3
	c-0.2-0.2-0.2-5.9-0.2-37.5c0-20.5,0-37.3,0.1-37.4C752.4,491,755.2,491.1,758,491.3z M857.5,491.2c0,0.1,0.1,17,0.1,37.4
	c0,31.5,0,37.2-0.2,37.3c-1.6,0.2-3.2,0.4-4.9,0.3c-2.6,0.1-5.7,0.3-7,0.4s-2.7,0.2-3.1,0.2c-1.1,0-10,1.2-12.2,1.6
	c-4.2,0.9-5.5,1.2-6.2,1.4l-1.7,0.5c-0.5,0.1-1.2,0.3-1.5,0.5s-1,0.3-1.5,0.5c-1.1,0.3-2.1,0.7-3.1,1.1l-2,0.8c-2,0.9-4,2-5.9,3.1
	c-0.4,0.3-0.8,0.5-1.3,0.6c-0.2-0.1-0.2-5.4-0.2-36.1v-36l0.5-0.7c0.9-1.1,1.9-2.1,3-3c2.5-1.8,5.3-3.2,8.2-4.4
	c0.9-0.4,1.8-0.7,2.7-1l2.3-0.7c1.8-0.5,2.4-0.7,6.8-1.6c0.5-0.1,1.6-0.3,2.5-0.5l3-0.5c2.5-0.4,3.7-0.5,5.4-0.7l3.4-0.3
	c0.9-0.1,3.1-0.2,4.8-0.3s3.4-0.2,3.6-0.2s1.3-0.1,2.4-0.1C857.1,491,857.4,491,857.5,491.2L857.5,491.2z"/>
<path d="M534.3,195.5l-5.2,16.3l-17.7,0.5l-17.7,0.5l14.2,10.3c12.1,8.8,14.1,10.6,13.6,12.3c-0.3,1.1-2.7,8.4-5.2,16.4
	s-4.5,14.6-4.3,14.8c0.2,0.2,6.4-4,13.7-9.5s13.8-9.9,14.3-9.9s6.9,4.4,14.3,9.9c7.4,5.5,13.6,9.7,13.8,9.5s-1.7-6.9-4.3-14.8
	s-4.9-15.3-5.2-16.4c-0.5-1.6,1.5-3.5,13.6-12.3l14.2-10.3l-17.7-0.5l-17.7-0.5l-5.2-16.3c-2.9-8.9-5.4-16.2-5.7-16.2
	S537.2,186.6,534.3,195.5z"/>
<path d="M710.4,276.1l4.8,16.4l-14.3,10.3l-14.4,10.3l17.6,0.5c14.9,0.5,17.6,0.9,18.1,2.5c0.3,1.1,2.5,8.5,4.9,16.5
	s4.5,14.6,4.8,14.6s3-6.9,6.1-15.6s5.8-15.9,6.3-16.2s8.2-0.2,17.4,0.2s16.7,0.4,16.7,0.1s-5.3-4.7-11.8-9.8s-12.7-9.9-13.5-10.6
	c-1.3-1.1-0.7-3.7,4.3-17.8l6-16.5l-14.9,9.6l-14.9,9.5l-13.5-10.5c-7.4-5.8-13.6-10.4-13.8-10.2S707.8,267.1,710.4,276.1z"/>
<path d="M360.1,269.4l-13.4,10.5l-14.9-9.5l-14.9-9.5l6,16.5c5.1,14,5.7,16.7,4.4,17.8c-0.9,0.7-7,5.5-13.5,10.6s-11.9,9.5-11.9,9.8
	s7.5,0.2,16.7-0.1s16.9-0.5,17.4-0.2s3.2,7.5,6.3,16.2s5.8,15.6,6.1,15.6s2.5-6.6,4.8-14.6s4.5-15.4,4.9-16.5
	c0.5-1.7,3.2-2,18.1-2.5l17.6-0.5l-14.4-10.3l-14.4-10.3l4.8-16.4c2.6-9,4.6-16.5,4.4-16.6S367.5,263.7,360.1,269.4z"/>
<path class="st0" d="M461.1,968.3c-1.6,0-3.4,0-4-0.1c-9.3-0.7-12.5,0.2-16.2,4.4c-0.7,0.8-1.3,1.6-1.9,2.5c-0.8,2-1.1,4.1-0.9,6.3
	c0.8,3.1,0.9,2.8-0.3,2.7c-1.2-0.3-2.5-0.7-3.6-1.2c-2.9-1.2-4.7-1.2-5.7,0c-0.6,0.6-1.2,1.1-1.9,1.5c-0.5,0.3-0.9,0.6-1.3,1.1
	c0.6,0.3,1.3,0.6,2,0.8c2.5,0.9,4.9,2.3,6.9,4.2c1.2,1,2.6,1.9,4,2.5c3.9,1.8,6.1,1.7,13.3-0.6c3.1-1,6.5-2,7.5-2.1
	c4-0.7,6.8-1.8,7.3-2.7c0.4-0.7,0.1-2.4-0.4-2.6c-1.6,0.1-3.2,0.5-4.7,1c-4.6,1.3-7.7,1.5-9.5,0.6c-3.1-1.5-0.5-4.8,5.5-6.9
	c4.1-1.4,5.6-3,6.5-7c0.4-1.6,0.7-4.4,0.5-4.4C464,968.4,462.7,968.4,461.1,968.3z"/>
<path class="st0" d="M617.5,968.9c1.7,0,3.6-0.1,4.2-0.1c9.8-0.8,13.1,0,17,4.2c0.7,0.8,1.4,1.6,1.9,2.5c0.8,2,1.1,4.1,0.8,6.3
	c-0.9,3.1-1,2.8,0.2,2.7c1.3-0.3,2.6-0.7,3.8-1.2c3.1-1.2,4.9-1.3,6-0.1c0.6,0.6,1.3,1.1,2,1.5c0.5,0.3,0.9,0.6,1.3,1
	c-0.7,0.4-1.4,0.6-2.2,0.9c-2.7,1-5.1,2.4-7.3,4.3c-1.3,1-2.7,1.9-4.3,2.6c-4.1,1.8-6.5,1.8-13.9-0.4c-3.3-0.9-6.8-1.9-7.9-2
	c-4.2-0.7-7.1-1.7-7.6-2.6c-0.4-0.7-0.1-2.4,0.4-2.6c1.7,0.1,3.4,0.4,5,0.9c4.9,1.3,8.1,1.4,10,0.5c3.3-1.6,0.6-4.9-5.6-6.8
	c-4.2-1.3-5.8-3-6.6-7c-0.4-1.6-0.6-4.4-0.4-4.4C614.4,969,615.8,969,617.5,968.9z"/>
<path d="M534.3,884.5l-5.2-16.3l-17.7-0.5l-17.7-0.5l14.2-10.3c12.1-8.8,14.1-10.6,13.6-12.3c-0.3-1.1-2.7-8.4-5.2-16.4
	s-4.5-14.6-4.3-14.8c0.2-0.2,6.4,4,13.7,9.5s13.8,9.9,14.3,9.9s6.9-4.4,14.3-9.9s13.6-9.7,13.8-9.5s-1.7,6.9-4.3,14.8
	s-4.9,15.3-5.2,16.4c-0.5,1.7,1.5,3.5,13.6,12.3l14.2,10.3l-17.7,0.5l-17.7,0.5l-5.2,16.3c-2.9,8.9-5.4,16.2-5.7,16.2
	S537.2,893.4,534.3,884.5z"/>
<path d="M710.4,803.9l4.8-16.4l-14.3-10.3l-14.4-10.3l17.6-0.5c14.9-0.5,17.6-0.9,18.1-2.5c0.3-1.1,2.5-8.5,4.9-16.5
	s4.5-14.6,4.8-14.7s3,6.9,6.1,15.6s5.8,15.9,6.3,16.2s8.2,0.2,17.4-0.2s16.7-0.4,16.7-0.1s-5.3,4.7-11.8,9.8s-12.7,9.9-13.5,10.6
	c-1.3,1.1-0.7,3.7,4.3,17.8l6,16.5l-14.9-9.6l-14.9-9.5l-13.5,10.5c-7.4,5.8-13.6,10.4-13.8,10.2S707.8,812.9,710.4,803.9z"/>
<path d="M360.1,810.6l-13.4-10.5l-14.9,9.5l-14.9,9.5l6-16.5c5.1-14,5.7-16.7,4.4-17.8c-0.9-0.7-7-5.5-13.5-10.6s-11.9-9.5-11.9-9.8
	s7.5-0.2,16.7,0.1s16.9,0.5,17.4,0.2s3.2-7.5,6.3-16.2s5.8-15.7,6.1-15.6s2.5,6.6,4.8,14.7s4.5,15.4,4.9,16.5
	c0.5,1.7,3.2,2,18.1,2.5l17.6,0.5l-14.4,10.3l-14.4,10.3l4.8,16.4c2.6,9,4.6,16.5,4.4,16.6S367.5,816.3,360.1,810.6z"/>
<g>
	<path class="st0" d="M110.2,723.3c-4.1-9.8-0.8-21.6,10.1-26.2c11.7-5,22.6,0.8,27.1,11.3s0.3,22-10.2,26.4
		C127.4,739,115.3,735.4,110.2,723.3L110.2,723.3z M112.7,723.6c2.6,6.2,10.2,10,20.5,5.7c10-4.2,15-13.3,11.6-21.3
		c-2.6-6.2-10-9.9-20.5-5.4C112.9,707.4,109.6,716.3,112.7,723.6L112.7,723.6z"/>
	<path class="st0" d="M101.7,670.2c-1.6,0.8-2.9,1.8-4,3.2c-1.3,1.5-1.3,2.9,0,7.2l1.3,4.2c0.6,1.8,0.8,1.9,2.5,1.4l13.1-4.2
		l-1.9-5.8c-1.7-5.3-2.3-5.4-6.2-5l-0.5-1.7l11-3.5l0.6,1.7c-3.7,2-4.2,2.5-2.5,7.7l1.9,5.8l9.8-3.2c5-1.6,5.1-2.2,3.8-7.6l1.6-0.5
		l5.2,16.2l-1.6,0.5c-1.8-4.5-2.4-4.8-7.3-3.2l-21.8,7c-4.9,1.6-5.1,2.2-4,6.7l-1.7,0.5l-8.3-25.7c2-0.7,5.5-2.2,8.2-3.3
		L101.7,670.2z"/>
	<path class="st0" d="M89.3,614.8c-2.8,1.2-4.2,2.1-5,3.1c-1.1,1.3-1.4,2.4-0.5,6.9l0.8,4l28.1-5.6c4.6-0.9,5.1-1.6,4.4-7.2l1.7-0.3
		l3.5,17.5l-1.7,0.3c-1.4-5.3-2.2-5.7-6.8-4.8l-28.1,5.6l0.7,3.4c1,5.1,1.8,6.3,3.2,6.8c1.1,0.6,2.9,0.7,5.8,1l0.3,1.8
		c-3.8,0.5-7.7,1-10.9,1.5l-0.3-1.3c1.3-1.2,1.1-1.9,0.8-3.7l-4.8-24c-0.1-1.3-0.9-2.3-2.1-2.8l-0.3-1.3c2.6-0.5,7-1.7,10.4-2.7
		L89.3,614.8z"/>
	<path class="st0" d="M76.1,565.7c0.9,4.9,1.2,5.4,6.2,4.9l23.3-2.3c5-0.5,5.2-1,5.1-6l1.7-0.2l1.7,16.6l-1.7,0.2
		c-0.9-5.1-1.3-5.6-6.2-5.1L94.6,575l2,20.6l11.4-1.1c4.9-0.5,5.2-1,5.1-6l1.7-0.2l1.6,16.3l-1.7,0.2c-0.9-4.8-1.2-5.2-6.2-4.7
		l-23.2,2.3c-5,0.5-5.2,1-5.1,6l-1.8,0.2l-1.6-16.2l1.8-0.2c0.9,4.6,1.2,5.1,6.2,4.6l9.2-0.9l-2-20.6l-9.2,0.9
		c-4.9,0.5-5.2,1-5.1,5.8l-1.8,0.2l-1.6-16.3L76.1,565.7z"/>
	<path class="st0" d="M102.7,527.5c2.2,0.4,7.6,1.5,9.5,2l0.2,29.6h-1.7c-0.4-5.4-1-6-5.8-5.9l-23,0.1c-5.4,0-5.5,0.6-5.9,5.2h-1.8
		l-0.2-27.3c1.5-0.1,5.4-0.3,8.7-0.6l0.3,1.9c-1.8,0.4-3.5,1-5.1,2c-1.3,0.9-1.7,2.5-1.7,6.7v4.5c0,2,0.2,2.1,1.9,2.1l13.2-0.1v-5.5
		c0-5.4-0.5-5.8-4.5-6.5v-1.8l11.5-0.1v1.8c-4.3,0.9-4.6,1.3-4.6,6.6v5.5l10.8-0.1c2.8,0,4.1-0.3,4.8-1.5s0.7-3.4,0.7-6.2
		c0-4.4-0.4-6.2-2-7.6c-1.7-1.3-3.6-2.3-5.7-3L102.7,527.5z"/>
</g>
<g>
	<rect x="513.4" y="494.6" width="46.7" height="95.2"/>
	<rect x="518.9" y="503.1" width="36" height="80.1"/>
	<rect x="488.4" y="520.3" width="97" height="43.7"/>
	<g>
		<path d="M536.3,362.3c-0.5,0.3-1.1,0.4-1.7,0.4c-1.3,0-5.4,2.7-6.9,4.5c-1,1.3-1.8,2.8-2.5,4.3c-1.2,2.5-1.3,3.3-1.3,6.8
			c-0.1,2.6,0.3,5.1,1.3,7.5c0.7,2,1.6,3.9,2.7,5.7c1.8,2.9,1.4,3.6-2.8,4.7c-3.7,1-16.3,1.2-20.8,0.4c-10.9-2.1-20.8-5.2-34.7-11.1
			c-12.3-5.2-15.4-6.4-24.8-8.8c-2.8-0.8-4.9-0.9-10.1-0.9c-6.4,0-6.7,0-11,1.5c-12.9,4.4-20.8,13.3-20.3,22.4
			c0.2,3.8,1.5,5.7,4.9,7.3c2.3,1.1,4.7,3.4,4.7,4.5c0,0.6,3.4,3.5,5.4,4.5s3.9,1.1,3.9,0.2c0-0.4-0.2-0.7-0.4-0.9
			c-0.7-0.4-0.5-3.8,0.3-6.1c1.5-4.6,8-8.2,14.5-8.2c4.9,0.3,9.7,1.4,14.2,3.3c3.9,1.5,5.2,2.1,9.8,4.1c7.3,3.3,14.9,6,22.6,8
			c15.4,4,35.2,2.1,48.1-4.5c8.7-4.4,20.2-15.7,24.5-24.1c2.5-4.8,3.3-9.4,2.5-13.7c-0.6-3-2.1-5.8-4.4-7.9c-1.5-1.8-3.6-3-5.9-3.6
			C545.5,362,537.1,361.8,536.3,362.3z M541.5,372c1.6,0.6,2.2,1.8,2.2,4.3c0,3.4-2.2,8.4-3.7,8.4c-1,0-3.5-5.5-3.7-8.1
			c-0.2-2.2-0.1-2.5,1.1-3.7C539,371.4,539.5,371.3,541.5,372L541.5,372z M435.5,381.4c1.2,0.4,0.8,1.9-0.5,2.2
			c-2.5,0.5-2.5,0.4-2.2,4.4s0.1,5-1,5s-1.4-0.6-1.4-4.6c0-1.4-0.1-2.7-0.3-4.1c-0.1-0.3-0.9-0.5-1.6-0.6c-1.5-0.1-2.1-1.5-1-2.1
			C428.1,381.1,434.4,381,435.5,381.4L435.5,381.4z M447.9,384.4c2.8,1.3,3.6,2.6,2.7,4.6c-0.2,0.7-0.7,1.2-1.3,1.6
			c-1,0.4-1.2,1.3-0.8,3.4c0.3,1.2,0.3,1.8,0,2.1c-0.8,0.8-2.6-1.2-2.9-3.1s-1.2-2.9-2.1-2.5c-0.6,0.5-1,1.2-1.1,2
			c-0.4,1.5-0.7,1.8-1.6,1.8c-1.9,0-1.9-0.7,0.6-7.9c0.3-0.9,0.6-1.8,1.1-2.5C443.1,383.1,445.4,383.3,447.9,384.4L447.9,384.4z
			 M459.9,389c0,1.3-3,9.5-3.6,9.8s-2.1-0.3-2.1-0.9c0.3-1.1,0.7-2.3,1.1-3.4c2.4-6.2,2.5-6.3,3.6-6.3
			C459.5,388.2,459.9,388.5,459.9,389z M469.3,392c0.6,0.6,1.4,3.6,1.7,6.3c0.1,0.5,0.3,1,0.5,1.1s1.4-1.8,2.5-4.1
			c0.3-0.4,0.8-0.7,1.3-0.8c1.3-0.2,1.2,1.2-0.4,5.4c-1.8,4.6-1.8,4.8-3.2,4.9s-1.8-0.6-2.7-4.8c-0.2-1.2-0.5-2.4-1-3.5
			c-0.2-0.2-0.8,0.8-1.4,2.1c-1.2,3-1.9,3.9-2.8,3.5c-1.2-0.5-0.8-2.2,2.5-9C467.1,391.2,468.1,390.8,469.3,392L469.3,392z
			 M484.7,399.1c-0.3,1.8-0.7,3.5-1.3,5.2c-1.4,4.2-2.5,5.4-3.3,3.6c-0.4-0.8-0.2-1.8,1-5.2c1.6-4.6,2-5.3,3-5.1
			C484.5,397.7,484.7,398.1,484.7,399.1L484.7,399.1z M495.7,400.3c1.1,0.2,2.2,0.5,3.2,0.9c0.6,0.6-0.4,1.6-1.6,1.6
			c-1.7,0-2.1,0.7-2.5,4.6s-0.5,4.2-1.8,4.2c-1.1,0-1.1,0-0.8-3c0.1-1.6,0.4-3.6,0.5-4.4c0.2-1.2,0.1-1.5-1.1-2.1
			c-0.8-0.4-1.4-1-1.4-1.6C490.2,399.4,491.4,399.4,495.7,400.3L495.7,400.3z M505.8,403.5c0.3,0.6,0.8,1.1,1.4,1.5
			c0.3,0,1-0.7,1.7-1.5c1.2-1.6,2.6-2,3-0.9c0.1,0.4-0.4,1.5-1.2,2.5c-2.1,2.7-2.5,3.6-2.5,5.5s-0.6,2.9-1.6,2.5
			c-0.4-0.1-0.6-0.9-0.6-2.2c0-2-0.7-3.8-2.5-6.2c-0.5-0.6-0.8-1.3-0.8-2.1C503.1,401.3,504.8,401.9,505.8,403.5L505.8,403.5z"/>
		<path d="M444.4,386.4c-0.8,1.3,0.7,2.6,2.9,2.7c0.7-0.1,1.2-0.7,1.1-1.3c0-0.3-0.1-0.5-0.3-0.7
			C447.1,386.2,444.7,385.8,444.4,386.4z"/>
		<path d="M637.5,376.1c-1.7,0.3-3.8,0.8-4.6,1s-2.6,0.8-4,1.1c-2.2,0.6-4.1,1.3-8.8,2.9c-0.7,0.2-1.3,0.5-1.9,0.9
			c-0.3,0.2-0.7,0.4-1,0.4c-0.8,0.2-1.6,0.4-2.4,0.8c-1,0.4-3.1,1.4-4.7,2s-3.2,1.3-3.5,1.5c-3.6,1.8-17.9,6.8-22.4,7.8
			c-10.1,2.2-12.2,2.5-18.5,2.5c-3.1,0.1-6.1-0.1-9.1-0.6l-2.7-0.6l-5.4,5.6c-2.9,3.1-5.4,5.9-5.5,6.2c-0.3,1.4,6.5,5.1,12.7,7.1
			c13.2,4.1,27.3,4.6,40.7,1.4c2.1-0.5,4.2-1.1,6.2-1.8c0.5-0.2,1.1-0.4,1.6-0.4c0.7-0.1,1.4-0.3,2.1-0.7c0.5-0.3,1.1-0.5,1.7-0.7
			c0.6-0.1,1.2-0.3,1.8-0.6c0.8-0.4,4.6-1.9,8.4-3.6s7.6-3.2,8.3-3.5c5-2.2,12.4-4.2,16.2-4.2s9.4,1.8,11.6,3.8
			c2.7,2.3,3.7,5,3.5,8.9l-0.2,3.3l1.5-0.2c2-0.4,6.2-3.1,6.9-4.6c1.1-2.3,3-4.1,5.3-5.2c7.1-3.3,6.5-13.3-1.4-21.1
			c-2.7-2.7-5.8-4.9-9.2-6.5c-0.9-0.4-2.1-0.9-2.5-1.1c-2.3-0.8-4.7-1.5-7.2-2C648,375.3,641.7,375.4,637.5,376.1z M639.7,383.5
			c2.2,1.2,3.4,3.5,3.1,6c-0.3,3.4-2.7,5.4-6.3,5.4c-2.2,0-4.1-1.3-5-3.3c-1.7-3.3-0.5-6.4,3.1-8.3
			C636.7,382.3,637.6,382.3,639.7,383.5L639.7,383.5z M651.5,383c0,0.3,0.1,2.4,0.1,4.7c0,4.6-0.1,4.3,3.5,5
			c1.3,0.3,1.5,1.2,0.7,1.9c-0.6,0.4-6.2-0.3-6.7-0.9s-0.2-10.1,0.3-10.8S651.4,382.3,651.5,383L651.5,383z M623.2,388.8
			c2.5,1.3,3.4,2.8,3.4,5.5c0,2.1-0.2,2.8-1.1,3.7c-2.3,2.5-5.8,3.1-8.2,1.5c-1.8-1.1-2.9-3.2-2.8-5.3
			C614.5,390.1,619.5,386.9,623.2,388.8L623.2,388.8z M608.5,395.1c0.4,0.9,1.1,2.3,1.4,2.9c0.3,0.5,0.5,1.1,0.6,1.7
			c0.2,0.7,0.4,1.4,0.8,2c0.7,1.5,0.7,1.6,0,2.1c-1.1,0.8-1.7,0.4-2.6-1.6c-0.3-0.7-0.7-1.3-1.1-1.9c-0.6-0.4-4.3,1.2-4.5,1.9
			c0,0.7,0.2,1.5,0.5,2.1c0.8,1.7,0.4,2.9-0.9,2.7c-0.8-0.1-1.2-0.8-2.4-4.3c-1.5-4.4-1.7-6.8-0.6-6.8c0.3,0,1,0.8,1.5,1.6
			c0.9,1.8,1.1,1.9,3.6,1c1.9-0.7,2.3-1.4,1.6-3.3c-0.3-0.9-0.3-1.4,0-1.8C607,392.8,607.6,393.2,608.5,395.1L608.5,395.1z
			 M592.1,398.8c0.5,0.3,0.8,0.8,0.8,1.3c0,0.8-0.3,0.9-1.8,0.9c-1.2-0.1-2.3,0.4-3.1,1.3c-1.5,1.5-1.6,2.5-0.6,4
			c1.6,2.4,3.6,2.9,5.3,1.3c1.1-1.1,2.4-0.8,2.4,0.4c0,2.5-5.6,3.7-8.1,1.8c-2.7-2.1-3.3-5.9-1.3-8.6
			C587.5,398.8,590.3,397.8,592.1,398.8L592.1,398.8z M578.4,401.6c0.3,0.3,0.4,0.8,0.3,1.3c-0.2,0.6-0.7,0.7-2.7,0.4
			s-2.5-0.2-2.7,0.4c-0.3,1-0.2,1.1,2.5,2.1c3.6,1.2,4.7,3.3,2.9,5.8c-1.3,1.8-6.5,1.8-8.4,0c-0.8-0.9-0.8-0.9,0-1.4
			c0.6-0.3,1.4-0.3,2.1,0c1.7,0.6,3.6,0.5,4.1-0.2c0.4-0.5,0.3-0.8-0.5-1.3c-0.7-0.4-1.4-0.8-2.1-1c-1.6-0.5-3.4-1.8-3.7-2.8
			c-0.3-1.6,0.6-3.1,2.1-3.8C574.1,400.4,577.5,400.7,578.4,401.6L578.4,401.6z"/>
		<path d="M634.5,386.3c-1.3,1.3-1.5,2.7-0.5,4.5c0.7,1.6,2.6,2.3,4.2,1.5c0.4-0.2,0.8-0.5,1.1-0.8c1.4-1.3,1.5-3.4,0.2-4.8
			c-0.1-0.1-0.2-0.2-0.4-0.3C637.6,384.8,636,384.8,634.5,386.3z"/>
		<path d="M618.5,391.5c-1.8,1.5-1.9,3.7-0.1,5.5c2.3,2.3,5.2,1.2,5.6-2.1c0.2-1.6,0.1-2-1.1-3.2
			C621.3,390.1,620.2,390.1,618.5,391.5z"/>
		<path d="M432.2,404.2c-4.7,1.2-7.2,3.5-7.7,7c-0.4,2.9,0.4,4.8,2.5,5.8c1.1,0.7,2.5,0.7,3.7,0.2c2.3-0.7,3.8-2.3,5.3-5.8
			c1.1-2.5,2.9-4.6,4.4-4.9c0.6-0.1,1.6-0.3,2.2-0.5c1.5-0.3,1-0.8-1.4-1.4C438.3,403.7,435.2,403.6,432.2,404.2z"/>
		<path d="M640.6,404c-1.2,0.2-2.4,0.5-3.5,0.9c-1,0.4-1.1,0.6-0.7,0.9c0.5,0.3,1.1,0.4,1.7,0.4c1.8,0,3.6,1.7,5,4.7
			c1.9,4.1,3.1,5.5,5.2,6.2c2.7,0.9,5,0,6.2-2.2s1.1-3.2,0-5.5C652.7,405.4,646.6,403,640.6,404z"/>
		<path d="M441.1,409.7c-0.8,0.5-1.4,1.2-1.7,2.1c-0.6,1.8-1.4,3.5-2.5,5c-1,1.1-2.2,2-3.5,2.6c-2.5,1.4-3,1.5-6.9,1.5
			c-2.2,0.1-4.5-0.2-6.6-0.9c-2.5-0.9-4.8-2.1-6.9-3.7l-1-0.9l-4.7,0.9c-8.6,1.7-13.2,3.6-17.1,7.1c-1.9,1.7-1.6,1.9,5.8,3.5
			c7,1.5,7.6,1.8,8.1,2.6c0.5,1.7,0.8,3.4,0.9,5.1c0.1,1.6,0.4,3.2,0.9,4.7c0.2,0.2,1.6-0.2,3.6-1.1c5.2-2.5,10.4-3.8,18.1-4.5
			c3.6-0.2,7-1.3,10.1-3.1c5.8-3.3,9.9-10.5,9.4-16.7c-0.2-2.1-0.4-2.7-1.6-3.8C443.8,408.6,443,408.5,441.1,409.7z"/>
		<path d="M634,409.8c-0.9,0.8-1.4,2-1.5,3.2c-1,6.7,2.4,13.4,8.8,17.4c3.1,2,5.9,2.8,10.6,3.2c6.1,0.4,12.1,1.9,17.7,4.5
			c1.1,0.6,2.3,1,3.6,1.2c0.5-1.6,0.8-3.2,0.9-4.8c0.1-1.8,0.5-3.6,1-5.3c0.4-0.6,5.8-2,12-3.3c3.6-0.7,3.5-1.8-0.5-4.4
			c-4.7-3-7.5-4-15.4-5.5c-3.9-0.8-4-0.8-5,0.1c-3.8,3-8.6,4.6-13.4,4.6c-6.5,0-9.9-2.1-12.4-7.5C638.5,408.9,636.4,407.8,634,409.8
			z"/>
		<path d="M537,423.9c-1,0.9-3,2.7-4.6,4s-4.5,3.9-6.6,5.8c-1.6,1.5-3.3,2.8-5.2,3.8c-0.9,0.3-14.8,0.4-37.8,0.3
			c-20,0-36.5,0-36.6,0.2s0.6,1,1.6,1.8c2.3,1.9,11.1,8.8,13.3,10.4l1.6,1.2h63.1l1.3-1c0.7-0.5,3.4-2.9,6-5.2
			c1.8-1.7,3.7-3.3,5.7-4.7c1-0.5,2.1,0.2,7.6,5.1c4,3.6,5.7,5,6.5,5.4c0.5,0.3,13,0.4,32.3,0.4h31.6l1.9-1.4
			c8.4-6.3,14.8-11.5,14.5-11.8c-0.1-0.1-17.2-0.3-37.8-0.4l-37.6-0.1l-2.3-2.2c-1.3-1.2-3.3-3-4.4-3.9c-2-1.6-4.9-4.2-9-7.9
			c-0.7-0.7-1.5-1.2-2.4-1.4C538.6,422.5,537.7,423.1,537,423.9z"/>
		<path d="M427.3,446.8c-6.2,2.6-9.4,5.6-10.9,10.4c-1.2,3.9-1.1,8.2,0.4,12c4.6,9.9,19.8,10.4,22.6,0.8c1.4-4.6-0.4-8.7-4.5-10.4
			c-1.9-0.8-4.3-0.4-6.8,1.2c-1.8,1.2-2.4,2-4,5.8c-0.8,1.8-2.1,2.2-2.9,0.8s-0.5-5.6,0.5-7.5c3.1-6.2,9.7-8.4,16.2-5.6
			s9.5,11.3,7.1,19.8c-1.3,4.6-5.7,11.2-10.9,16.4c-1,0.8-1.8,1.9-2.3,3c0.4,1,1,1.9,1.8,2.6c6.5,6.8,9.8,11.7,11.5,17
			c0.9,2.8,0.9,4.1,1.2,38.2c0.2,21,0.5,37,0.8,39.3c1.6,13.3,4.5,20.5,12.2,31.1c4.6,6.4,11.2,12.3,22,19.8
			c6.2,4.3,14,10.1,16.3,12c6,5.2,10.6,10.6,13.2,15.6c0.4,0.8,1,0.9,11.1,1c12.4,0.1,12,0.3,8.4-4.4c-5.1-6.6-10.2-11.2-19.2-17.2
			c-2.9-2-5.4-3.6-5.6-3.6c-1.2-0.6-2.3-1.2-3.4-1.9c-1.8-1-5.6-3.1-8.6-4.6s-6.9-3.6-8.7-4.7c-1.2-0.7-2.4-1.4-3.6-2
			c-1.3-0.9-2.6-1.8-3.8-2.8c-12.3-9.6-18.4-22-19.6-39.8c-0.3-3.8-0.4-29.3-0.4-63.7c0.1-51.9,0-57.7-0.7-60.8
			c-1.6-7.5-5.8-13.3-12.4-16.5c-3.8-1.9-3.9-1.9-9.1-2C430.3,445.8,429.5,445.8,427.3,446.8z"/>
		<path d="M639.8,445.7c-4,1.1-7.7,3.2-10.7,6c-2.7,2.9-4.7,6.3-5.9,10l-1,2.8l-0.3,63.7c-0.3,70.4-0.1,66-3.3,76.9
			c-0.8,2.8-4.4,9.8-6.8,13.2c-2.3,3.3-5.1,6.3-8.2,8.8c-4.1,3.4-6.3,4.7-18.2,11c-15.5,8.1-22.4,12.8-31.1,21.2
			c-1.9,1.8-7.5,9-7.5,9.7s1.3,0.9,10.9,0.9h10l0.9-1.1c0.7-0.9,1.3-1.8,1.8-2.7c2.6-4.9,11.3-13.3,21.1-20.1
			c1.7-1.2,3.3-2.4,3.6-2.6s1.8-1.3,3.4-2.4c5.4-3.7,10.5-7.8,15.2-12.2c3.1-3,8.7-9.8,8.7-10.5c0.4-0.9,0.9-1.7,1.5-2.5
			c3-4.7,5.2-9.9,6.6-15.3c2-8.1,2.1-10.3,2.4-47.8c0.3-37.7,0.3-38,2.4-42.7c2.2-4.5,5.1-8.7,8.6-12.3c2.6-2.8,3.9-4.5,3.7-4.8
			c-0.8-1.1-1.7-2.1-2.6-3c-4.7-5-6.7-7.8-9.1-12.6c-5.6-11.1-0.8-23.2,9.6-24.5c3.6-0.5,7.2,0.8,9.7,3.5c2.5,2.5,3.3,4.3,3.3,8
			c0,4.6-2.2,5-3.8,0.6c-0.9-2.5-1.3-3.1-3.2-4.3c-3.8-2.5-6.9-2.3-9.6,0.4c-1.7,1.8-2.3,3.3-2.3,6.1c-0.1,2.6,1.1,5,3.1,6.7
			c4.2,3.8,10.9,3.7,16-0.1c6.8-5.1,7.1-16.7,0.4-22.9c-3.9-3.6-8.3-5.2-14.1-5.2C643.2,445.5,641.5,445.6,639.8,445.7z"/>
		<path d="M536.7,451.6c-1.1,1-3.7,3.3-5.7,5l-3.6,3.1h-31.1c-26.2,0.1-31.1,0.2-31.6,0.7s-0.5,16.3-0.4,64.7
			c0.1,63.5,0.1,64.1,1.1,69.1c2.6,14.2,8,23.1,19,31.3c5.1,3.9,7.9,5.6,15.8,9.8c7.4,3.8,14.4,8.2,21.1,13.2c1,0.9,2.5,2,3.1,2.4
			s4.2,4,8,7.8c2.3,2.4,4.7,4.8,7.3,6.9c0.7-0.4,1.2-0.9,1.7-1.5c0.8-0.8,2.5-2.7,4-4.3c6.8-7.4,14.7-13.8,23.4-18.9l5.8-3.4
			c0.3-0.2,1.5-0.8,2.6-1.4c11.2-5.5,21.1-12.8,27-19.7c1.8-2.2,5.9-9.1,6.2-10.8c0.1-0.6,0.3-1.2,0.6-1.8c0.7-0.9,2.2-7.1,2.8-11.9
			c0.6-4.3,0.1-68.5,0.1-68.5v-64l-30.8,1H552l-1.6-2.1c-0.9-0.7-1.7-1.3-1.8-1.4c-1.8-2-8.5-7.5-9.1-7.5
			C538.5,450.1,537.5,450.7,536.7,451.6z M541,459c1.3,1.3,2.7,2.5,4.1,3.6l3.3,2.3h60.3V525c0.1,40.5,0,60.8-0.3,64
			c-2,19.8-9.7,29.3-33.6,42c-9.1,4.8-10.6,5.7-14.5,8c-7.7,4.7-13.8,9.2-18.1,13.5c-0.8,0.8-1.6,1.6-2.5,2.2c-1.2-1-2.4-2-3.6-3.1
			c-3.3-3.1-10-8.3-10.5-8.3c-0.7-0.3-1.4-0.8-1.9-1.3c-1.4-1-2.8-1.9-4.2-2.7c-1.5-0.8-2.9-1.7-3.3-2c-0.6-0.5-2.8-1.7-12.1-6.6
			c-4.1-2-8-4.3-11.8-6.8c-15.1-10.1-20.4-19.2-21.8-37.9c-0.7-8.6-0.6-119.4,0.1-120.1c0.4-0.4,7.7-0.5,30.1-1.1h29.6l4.6-3.1
			c1.6-1.4,3.3-2.6,5-3.7C540,458,540.5,458.5,541,459z"/>
		<path d="M514.3,495.8c-0.3,0.5-0.4,5.4-0.4,12.7c0,6.5,0,11.9-0.1,12s-5.8,0.2-12.9,0.9h-12.6v42.9l13.5,0.1
			c11.5,0.1,13.5,0.2,13.7,0.8c0.2,0.5,0.1,1-0.3,1.4c-0.5,0.6-2.8,0.7-13.8,0.8l-13.2,0.1v2l12,0.1c8,0,12.2,0.3,12.6,0.6
			s0.6,2.5,0.6,9.4c-0.1,3.1,0,6.3,0.3,9.4c0.3,0.4,5.1,0.5,22.4,0.4l23.5-0.1l0.2-12.5l0.2-12.5l12-0.1c8,0,12.3-0.3,12.7-0.6
			s0.6-4.5,0.6-21.3c0-11.4-0.2-21-0.3-21.3s-2.9-0.6-9.8-0.7H566l-0.2-12.2c-0.2-11.1-0.3-12.5-1-13c-1.6-1-1.8,0-1.7,12.3
			c0.1,9.8,0,11.9-0.6,12.6s-0.8,0.8-1.5,0.4s-0.8-1.5-0.9-12.5c0-8-0.3-12.2-0.6-12.6s-4.7-0.6-22.6-0.6
			C515.5,494.9,514.8,495,514.3,495.8z M544.5,509.2c0.2,0.5,0.1,1-0.3,1.3c-0.4,0.5-1.8,0.7-6.6,0.7c-5.1,0-6.1,0.1-6.3,0.7
			c-0.1,0.4-0.3,5.9-0.2,12.3c0,9.3-0.1,11.8-0.6,12c-0.3,0.2-6.2,0.4-12.9,0.4c-9.7,0-12.5,0.1-12.8,0.6s-0.6,3-0.6,6.5l-0.1,5.9
			h-2.2l-0.1-7.2c-0.1-4.9,0-7.4,0.4-7.8S505,534,515,534c9,0,12.5-0.1,12.9-0.5s0.5-3.8,0.5-12.4c0-6.6,0.1-12.1,0.3-12.2
			c2.6-0.3,5.3-0.4,7.9-0.3C543,508.6,544.3,508.6,544.5,509.2z M543.8,514.7c0.5,0.3,0.7,2.1,0.9,10l0.2,9.3l12.5,0.1
			c11.6,0.1,14,0.2,14.5,0.8c0.3,0.4,0.4,0.9,0.3,1.4c-0.2,0.6-2.3,0.7-14.4,0.8h-12.9v3.1h13.4c7.4,0.1,13.4,0.3,13.5,0.3
			s0.1,2.2,0.1,4.7c0,4.4,0,4.7-1,5c-0.5,0.2-6.5,0.4-13.1,0.4s-12.4,0.1-12.7,0.3s-0.4,4.5-0.4,12.7c0,11.9,0,12.5-0.8,13
			c-1.3,0.7-8.6,0.6-9.2-0.1c-0.3-0.4-0.5-4.7-0.6-13c-0.1-11.4-0.2-12.5-0.9-12.9s-0.9-0.3-1.5,0.4s-0.4,12.5-0.4,12.5v12.3
			c0,0-1.5,1.5-2.3,0.8c-0.5-0.4-0.6-2.9-0.6-13c0-11.4,0-12.5-0.8-12.8c-0.4-0.2-4.8-0.3-9.8-0.3c-5.2,0-9.4,0-9.8-0.3
			c-0.7-0.3-0.8-1-0.8-4.7c0-3.1,0.2-4.5,0.6-4.8s4.8-0.5,13.3-0.4h12.7l0.2-12.7c0.2-10.4,0.3-12.5,0.9-12.8
			C535.8,514.1,542.9,514.1,543.8,514.7L543.8,514.7z"/>
		<path d="M588.4,521.7c-0.2,0.1-0.3,10.3-0.3,22.5c0,16.7-0.1,22.3-0.5,22.7s-3.8,0.5-12.7,0.5h-12.2v12.2c0,8.9-0.1,12.3-0.5,12.7
			s-6.4,0.5-24.5,0.5s-24.1,0.1-24.5,0.5c-0.7,0.7-0.7,2-0.1,2.3s51.3,0.3,51.9,0c0.2-0.2,0.4-5.6,0.4-12.7
			c0-10.9,0.1-12.5,0.7-12.7c0.4-0.1,6.1-0.3,12.7-0.3c9.2,0,12-0.1,12.1-0.6c0.1-0.3,0.1-11.2,0-24.3l-0.1-23.8h-1.1
			C589.3,521.4,588.8,521.5,588.4,521.7z"/>
		<path d="M407.6,592c-1.4,0.9-2.7,1.9-3.9,3.1c-3.4,3.4-6.1,4-12.6,2.3c-4.4-1.1-5.6-1.1-6.8-0.1l-1,0.8l2.4,0.7
			c4.6,1.5,8.9,4.6,13.5,9.5c5,5.5,9.5,12.9,15.9,26.3c7.1,15,25.5,27.7,42.5,29.5c2.7,0.3,8.3,0.7,12.5,0.9
			c7.6,0.4,12.2,1.2,12.5,2c0.1,0.2-0.8,0.8-1.9,1.2c-4.7,1.7-7,3.4-9.3,7s-3.1,7-3.1,12.3c0,4.1,0.2,5,1.3,7.5
			c4.7,10.9,17.1,17,31.6,15.6c4.3-0.4,8.5-1.7,12.2-3.8l3.3-1.7l3.2,1.7c4.4,2.3,8.5,5.1,12.3,8.3l3.3,2.9h8.7l4.3-3.6
			c3.5-3,7.5-5.6,11.7-7.6l2.8-1.5l3.7,1.8c5.3,2.5,7.1,3.1,11.8,3.6c12.2,1.2,22.5-2.7,28.7-10.8c4.8-6.3,5.5-13.1,2.2-22.3
			c-0.7-1.7-1.8-3.3-3.2-4.6c-2.5-2.5-3.5-3.1-7.7-4.9c-1.4-0.5-2-1-1.8-1.3c0.7-0.7,5.4-1.3,12.9-1.7c11.8-0.7,16.6-1.3,20.6-2.6
			c4.5-1.6,8.9-3.5,13.1-5.8c4.6-2.8,8.8-6.2,12.7-9.9c5-5.5,5.7-6.5,12.1-19.6c2.4-4.8,6.7-12.2,8.1-13.7c0.5-0.6,1-1.2,1.4-1.8
			c1.3-2.4,9.8-10.3,11-10.3c0.4-0.1,0.7-0.3,1-0.6c0.9-0.6,1.9-1.1,3-1.4c3.3-1,3.6-1.4,2.6-2.2s-3-0.8-6.8,0.3s-7.1,1.1-9.2,0.2
			c-1.4-0.8-2.6-1.7-3.7-2.9c-2.9-3-4.9-3.9-8.8-3.9c-6.4,0-10.6,3.3-14.4,11.6c-0.8,1.6-1.5,3.2-2.1,4.8c-0.9,2.5-1.9,4.9-3.1,7.3
			c-0.3,0.7-0.6,1.4-0.8,2.1c0,0.5-4.8,9.7-6.5,12.5c-2.6,4.3-5.8,8.2-9.4,11.6c0,0-9.5,8.7-21.7,12c-0.6,0.2-2.9,0.8-5.9,1.9
			c-1,0.4-2.8,1.1-5.1,2.2c-4,1.8-7.8,4.1-11.4,6.6c-5.7,4.1-7.1,6.4-7.7,7.7c-0.4,0.9-1.9,3.9-0.7,5.2c0.4,0.4,0.9,0.6,1.5,0.6
			c0.9,0.1,2-0.5,3.6-1.8c3.4-2.7,5.7-3.7,8.5-3.7c4.1,0,8.2,2.7,10.5,7c0.9,1.6,1,2.5,1,6.2c0,5.2-0.7,6.7-4.3,10
			c-3.3,3.3-7.8,5.1-12.4,5c-9.5,0-16.7-5.8-18.2-14.6c-0.4-1.6-0.4-3.2,0-4.8c1-3.5,4-3.2-28.1-3.2h-28.5l0.2,4
			c0.2,3.3,0.1,4.5-0.7,6.8c-2.5,7.4-9,11.8-17.7,11.8c-9.1,0-17-6.9-17-15c0-6.8,5.9-13.2,12-13.2c2.7,0,4.9,1,8.3,3.6
			c2.6,2,3.6,2.3,5.1,1.6c0.6-0.3,0.8-0.9,0.8-2.4c0-4.4-7.2-11.7-15.1-15.4c-3.4-1.6-7-2.9-10.6-3.9c-7.8-2.5-15.2-5.9-22.2-10
			c-4.3-3-8.1-6.6-11.4-10.8c-0.9-1.2-1.8-2.4-2.6-3.6c-0.6-1.2-1.2-2.4-2-3.5c-0.7-1.1-1.4-2.2-2-3.4c0-0.1-0.9-2-2-4.2
			c-0.8-1.4-1.4-2.9-2-4.4c-0.3-1-0.7-1.9-1.1-2.9c-0.7-1.3-1.9-4.3-2.9-6.7c-2.3-5.6-3.6-8-6-10.4c-2.5-2.8-6.1-4.3-9.9-4.3
			C410.2,590.9,409.3,591.1,407.6,592z M665.6,597.1c0,0.7-0.2,1.4-0.7,1.9c-0.9,1.2-0.8,2.2,0.1,2.2c0.6-0.3,1.2-0.8,1.6-1.3
			c0.9-1,1.4-1.2,1.8-0.9s0.6,0.6-0.2,1.9c-1.5,2.9,0,3.9,2.1,1.4c1.3-1.6,1.5-1.7,2.4-1.1c0.4,0.3,0.5,0.6,0,1.5
			c-0.3,0.7-0.7,1.2-0.9,1.2s-0.7,0.6-1,1.3c-0.9,1.8-1.8,1.7-5.2-0.7c-1-0.8-2.2-1.4-3.3-2c-0.2,0-0.5-0.5-0.7-1.1
			c-0.3-1.1,0.4-2.5,2.1-4.2C664.7,596.2,665.3,596.2,665.6,597.1L665.6,597.1z M416.4,598.2c-0.1,0.6-0.8,1.3-2.1,2
			c-1.1,0.6-2.2,1.2-3.2,2l-1.3,1l1,1.2c1,1.3,1,2.6-0.1,2.8c-0.9,0.2-3.5-3.6-3.3-4.8c0.1-0.5,1.1-1.4,2.5-2.2
			c1.2-0.6,2.4-1.4,3.5-2.2c0.6-0.5,1.3-0.7,2.1-0.8C416.2,597.3,416.5,597.5,416.4,598.2L416.4,598.2z M660.8,605.7
			c-0.2,1.4-0.1,1.5,3.1,3.3c2.4,1.3,3.3,2.1,3.3,2.7s-0.3,0.9-0.6,0.9c-1.8-0.4-3.4-1.1-4.9-2.2c-1.5-1-3.1-1.1-3.5-0.2
			c-0.2,0.5-0.8,0.8-1.3,0.6c-0.3-0.1-0.5-0.3-0.6-0.6c-0.3-0.8,2.3-6.2,3.1-6.5C660.4,603.4,661,604.3,660.8,605.7L660.8,605.7z
			 M423.4,610.4c0.1,0.8-0.7,2.1-2.8,4.7c-1.6,2-3.2,3.6-3.5,3.6c-1,0-1.3-1-0.7-2.2c1-1.8-0.8-4.8-2.9-4.8c-0.9,0-1.1-0.2-1-1
			c0.2-1.1,2.1-1.5,7.4-1.5C423.1,609.3,423.2,609.4,423.4,610.4L423.4,610.4z M658.7,613.7c3,1.3,4,2.1,4.6,3.6
			c0.4,1.1,0.3,1.5-0.5,3.1c-1.4,2.6-2.9,3-6.1,1.9c-2.8-1-4.6-2.2-4.7-3.3s1.1-0.9,2.8,0c0.6,0.3,1.3,0.6,2,0.7
			c0.4,0,0.8,0.1,1,0.4c0.4,0.7,2.2,0.5,2.8-0.2c1-1.2,0.2-2.7-2.1-3.7c-3.8-1.8-4.1-1.9-4.1-2.4
			C654.5,612.4,655.6,612.3,658.7,613.7L658.7,613.7z M428.8,619.9c1.5,2.8,1.6,4.3,0.1,5.4c-0.5,0.4-1.1,0.8-1.8,0.9
			c-0.7,0.2-1.3,0.6-1.8,1.1c-1.5,1.4-3,1.4-4.4,0s-2.9-4.7-2.6-5.5s7.5-4.3,8.6-4.2C427.3,617.6,428.1,618.7,428.8,619.9z
			 M651.7,622.4c0.2,0.5,0.3,1,0.2,1.5c-0.2,1.1,0.3,1.5,3.6,2.8c2.8,1.1,3.8,2.2,2.7,3.1c-0.6,0.4-1.1,0.3-3.5-0.8
			c-3.3-1.6-4.2-1.7-4.9-0.5c-0.6,0.9-1.6,1.1-2.1,0.4s2.7-7,3.3-7C651.2,622,651.5,622.1,651.7,622.4L651.7,622.4z M433.4,629.6
			c0.8,0.7,1.5,1.6,1.9,2.6c0.8,1.7,0.9,2.1,0.4,3.5c-1.6,4.4-6.7,5.5-9.6,2c-1.9-2.4-1.6-5.8,0.8-7.8
			C428.7,628.4,431.4,628.3,433.4,629.6L433.4,629.6z M648.4,631.5c0.7,0.4,1.3,1,1.5,1.8c0.4,1.3,0.6,1.4,2.6,1.4
			c1.7,0,2.2,0.2,2.5,0.8c0.5,1.2-1,1.9-3.7,1.8c-2.2-0.1-2.4,0-2.5,0.8c-0.1,0.7,0.2,1,1.2,1.5c1.6,0.7,2.1,1.7,1.2,2.6
			c-0.6,0.6-1.1,0.3-4.8-1.8c-3.5-2.1-4.2-2.7-4.2-3.6c0-0.6,0.2-1,0.4-1s0.6-0.6,0.9-1.3c0.6-1.5,2.4-3.1,3.3-3.1
			C647.4,631.1,647.9,631.3,648.4,631.5L648.4,631.5z M442.5,640.3c0.9,0.8,1.6,1.9,2,3c0,1.3-1.4,2.8-3,3.1s-2,0.8-2.5,2.8
			c-0.2,1-0.5,1.2-1.2,1.1c-1.2-0.2-1.5-1.6-0.5-3.4c1.4-2.6-0.3-4.1-2.2-2c-1.2,1.4-1.8,1.4-2.4,0.2c-0.4-0.9-0.2-1.2,2.7-4
			c1.8-1.7,3.6-3,4.2-3S441.2,638.9,442.5,640.3z M644,642.3c2.6,2.2,3.5,3.2,3.4,3.9c-0.2,1.7-1.5,1.2-4.9-1.8
			c-3-2.7-3.8-3.9-3-4.7C640,639.2,640.4,639.5,644,642.3L644,642.3z M637.2,643c0.8,1.6,1.4,3.2,1.9,4.8c1.1,3.5,1.3,4.4,0.8,4.9
			c-0.3,0.3-0.6,0.6-1,0.7c-1.7-0.8-3.4-1.7-5-2.7c-3.1-1.8-4.5-2.9-4.5-3.4c0-1.5,1.4-1.4,4,0.4c0.9,0.7,1.9,1.3,3,1.8
			c0.7,0,0.5-1.5-0.2-2.9C634.9,644.1,635.7,641.3,637.2,643L637.2,643z M450.5,646.7c2.8,1.6,2.5,3.9-0.3,2.3
			c-0.5-0.3-1.1-0.3-1.6-0.2c-0.6,0.3-0.4,0.5,0.9,1.8s1.6,1.5,0.9,1.9s-1.2,0.2-2.2-0.3c-1.3-0.6-1.5-0.6-1.9-0.1
			c-0.7,1-0.5,1.2,0.8,1.9c2,1,2.5,1.9,1.5,2.4c-0.6,0.3-1.4,0.2-3.1-0.7c-2.6-1.2-3.1-2-2.3-3.3c0.3-0.5,1-1.6,1.5-2.5
			c1.6-2.8,2.8-4.4,3.3-4.4C448.8,645.8,449.7,646.2,450.5,646.7L450.5,646.7z M624.1,650.6c-0.1,0.4-0.3,0.8-0.7,1.1
			c-0.9,0.8-0.8,1.2,0.4,3.9c0.5,1,0.9,2.1,1.1,3.2c0,1.6-2.6,0.8-2.6-0.9c-0.2-0.8-0.5-1.6-0.9-2.4c-0.7-1.5-1-1.8-2.1-1.8
			s-1.2-0.2-1.2-0.8c0-0.5,0.3-0.9,0.7-1.2C622.9,649.6,624.2,649.3,624.1,650.6L624.1,650.6z M615.4,653.5c0,0.9-0.6,1.6-1.5,1.7
			c-1.2,0.3-1.1,1,0.1,1.2c1.6,0.2,2,0.8,0.9,1.4c-1.3,0.8-1.1,1.3,0.5,1.5c1,0.1,1.4,0.3,1.4,1s-0.3,0.9-2.3,1
			c-2.2,0.1-2.3,0-3-1.2c-0.5-1.1-0.8-2.3-1-3.5c-0.3-2.1-0.2-2.2,1.2-2.8C613.8,653,615.4,652.9,615.4,653.5L615.4,653.5z
			 M544.1,684.2c2.7,1.7,4,6.3,2.6,9.8c-1,2.6-2.2,3.6-4.4,3.6c-3.3,0-5-2.5-5-7.2c0-3.7,2.2-6.8,5-7.1
			C542.9,683.5,543.5,683.8,544.1,684.2L544.1,684.2z M524,684.5c0.4,0.9,0.7,11,0.2,12.1c-0.5,0.7-1.4,0.9-2.1,0.4
			c-0.2-0.1-0.3-0.3-0.4-0.4c-0.5-1.3-0.3-11.8,0.3-12.4c0.3-0.5,1.1-0.7,1.6-0.4C523.7,684.1,523.9,684.3,524,684.5L524,684.5z
			 M535.3,685.2c0.1,1.2-0.4,2.7-2.8,8c-0.4,0.9-0.8,1.8-1,2.7c0,0.8-1.8,1.7-2.7,1.5c-1.2-0.3-1.1-0.8,1.1-5.7s2.1-5.5-0.3-5.3
			c-1.5,0.1-2.4-0.9-2-2.1c0.3-0.6,0.9-0.7,3.9-0.6l3.6,0.1L535.3,685.2z M556.3,684.2c2.7,1.2,3.9,6.8,2.2,10.3c-1.4,3-5,4-7.2,2.1
			c-1.7-1.6-0.8-2.5,2.2-2.1c1.6,0.2,1.8,0.2,1.8-0.7s-0.3-0.9-1.3-0.9c-1-0.1-1.9-0.5-2.6-1.1c-1.2-1-1.4-1.4-1.4-3.3
			C549.9,684.8,553,682.8,556.3,684.2L556.3,684.2z"/>
		<path d="M418.2,612c-0.4,0.5-0.4,0.7,0.2,0.9c0.8,0.3,1.8-0.4,1.4-1.1S418.8,611.2,418.2,612z"/>
		<path d="M425.1,621.2c-0.3,0.8,0.8,2.5,1.7,2.5s1.1-0.7,0.6-1.9S425.5,620.1,425.1,621.2z"/>
		<path d="M421.4,623c-0.4,1,0.8,2.8,1.7,2.8c1.2,0,1.4-1,0.6-2.4S421.8,621.9,421.4,623z"/>
		<path d="M428.1,632.1c-1.5,1.5-1.5,3.1,0,4.5s2.4,1.4,4.1,0c2.3-1.9,1.5-4.8-1.4-5.3C429.8,631,428.7,631.3,428.1,632.1z"/>
		<path d="M645.7,634.7c-1,1.6-0.8,2.1,0.7,2.1c1.1,0,1.8-1.5,1.3-2.8C647.2,632.9,646.6,633.1,645.7,634.7z"/>
		<path d="M439.1,641c-0.7,0.7-0.2,1.9,1,2.5c1.9,1,2.5-0.3,0.9-1.9C440.1,640.7,439.6,640.6,439.1,641z"/>
		<path d="M541,687.1c-0.5,0.5-0.7,1.5-0.7,3.3c0,3.2,0.5,4.3,1.9,4.3s1.9-1.5,1.8-4.7S542.5,685.5,541,687.1z"/>
		<path d="M553.3,687.1c-0.4,0.3-0.6,0.8-0.7,1.3c0.2,1,1,1.8,1.9,2c0.3,0,0.8-0.5,1-1c0.4-0.6,0.3-1.4-0.2-2
			C554.6,686.2,554.2,686.2,553.3,687.1z"/>
		<path d="M696.2,599.7c-3.9,1-6.8,3-12.1,8.5c-4.9,5.1-9,10.9-12.1,17.2c-1.1,2.3-3.4,7.1-5.2,10.7c-1.1,2.2-2.1,4.4-3,6.6
			c0.1,0.1,2.2,2.2,4.6,4.7s4.9,4.9,5.4,5.4l1,0.9l-0.3-2.8c-0.8-7.2,2.3-12,11.4-17.9s15.2-11.4,17.9-16.2c3.3-5.7,3.4-12,0.5-15.2
			C702.1,599.5,699,598.8,696.2,599.7z"/>
		<path d="M377.8,599.9c-3,1.3-4.4,3.7-4.4,7.8c0,3.8,0.9,6.4,3.3,10.1c2.9,4.3,10.3,11,15.1,13.7c5.1,2.8,10.6,8,12.2,11.4
			c0.9,2.1,1.1,3,1.1,6.5c0,2.9,0.1,4,0.4,3.8s2.8-2.6,5.5-5.4c4.7-4.9,4.9-5.2,4.5-6.4c-0.4-0.8-0.8-1.6-1.3-2.4
			c-0.7-1-3.8-7.4-6.6-13.7c-3.3-7.3-11-17.3-16.7-21.6c-4-3-6-3.9-9.1-4.1C380.5,599.5,379.1,599.6,377.8,599.9z"/>
		<path d="M368.4,635.9c-0.1,0.2,0.7,1.4,1.8,2.6c4.1,4.3,8.2,9.3,8.2,9.8s-2.9,2.9-7.8,6.6c-1.4,1-2.5,2.2-2.4,2.5
			c0.1,0.8,2.8,1,16.1,1.5c6.6,0.3,8.1,0.2,10.4-0.4c4.8-1.3,7.6-4.7,7.6-9c0-4.2-2-7.9-5.9-10.9l-2.5-1.9l-9.1-0.6
			C374,635.4,368.7,635.3,368.4,635.9z"/>
		<path d="M696.9,636c-10.8,0.6-11.4,0.7-13.9,2.7c-4.3,3.4-6.1,7.5-5.5,12.6c0.3,2.2,0.6,2.7,2.4,4.5c3.6,3.6,6.9,4,24,2.9
			c5.4-0.3,7.9-0.7,7.9-1s-2.8-2.8-7.8-6.5c-3.4-2.5-3.4-2.5,0.6-7.2c2-2.3,4.3-5,5.2-5.9s1.5-1.9,1.5-2.1
			C711,635.4,705.7,635.5,696.9,636z"/>
	</g>
	<rect x="543.7" y="534" class="st0" width="28.7" height="3.1"/>
	<rect x="528.5" y="549.3" class="st0" width="3.1" height="28"/>
	<rect x="525.6" y="547.2" width="3.1" height="33.5"/>
	<g>
		<rect x="513.7" y="495.1" class="st1" width="1.5" height="0"/>
		<text transform="matrix(0.76 0 0 1 513.7402 495.1201)" class="st0 st2 st3">Jeremy Ben-Meir</text>
	</g>
	<rect x="531.4" y="511.5" width="3.1" height="29.6"/>
	<rect x="488.4" y="562.2" width="27.2" height="13.6"/>
	<rect x="534.4" y="514.3" class="st0" width="10.7" height="63"/>
	<rect x="507.2" y="539.9" class="st0" width="65.2" height="11"/>
	<rect x="528.5" y="508.7" class="st0" width="3.2" height="28"/>
	<rect x="501.4" y="533.6" class="st0" width="30.2" height="3.1"/>
	<rect x="501.4" y="533.6" class="st0" width="3.1" height="17.3"/>
	<rect x="528.4" y="508.6" class="st0" width="16.5" height="2.9"/>
	<rect x="488.4" y="564.1" class="st0" width="25.3" height="2.9"/>
	<rect x="487.6" y="569.6" class="st0" width="26.1" height="27.5"/>
	<rect x="492.6" y="589.8" class="st0" width="70" height="2.9"/>
	<rect x="560" y="564.1" class="st0" width="2.6" height="28.7"/>
	<rect x="560" y="564.1" class="st0" width="27.9" height="3.3"/>
	<rect x="585.4" y="520.3" class="st0" width="2.6" height="47"/>
	<rect x="513.7" y="592.7" width="51.1" height="3.3"/>
	<rect x="562.6" y="567.4" width="2.9" height="28.7"/>
	<rect x="608.6" y="650.8" transform="matrix(0.9559 -0.2937 0.2937 0.9559 -165.403 210.6521)" width="20.2" height="10.4"/>
	<rect x="562.6" y="566.6" width="28.3" height="3.3"/>
	<rect x="588" y="520.3" width="2.9" height="50"/>
	<rect x="565.2" y="569.2" class="st0" width="26.1" height="46.8"/>
	<rect x="626.5" y="632.6" transform="matrix(0.6821 -0.7312 0.7312 0.6821 -262.8253 674.8557)" width="36.6" height="14.3"/>
	<rect x="562.6" y="494.6" width="3.3" height="25.7"/>
	<rect x="560" y="494.6" class="st0" width="2.6" height="25.7"/>
	<g>
		<path class="st0" d="M617.6,660.4c0,0.1,0,0.2,0.1,0.3c0,0.1,0,0.1,0,0.2c0,0,0,0.1,0,0.1c0,0-0.1,0.1-0.1,0.1l-3.7,1
			c-0.1,0-0.2,0-0.3,0c-0.1-0.1-0.2-0.2-0.2-0.3l-1.8-6.4c-0.1-0.1-0.1-0.3,0-0.4c0.1-0.1,0.2-0.2,0.3-0.2l3.7-1c0,0,0.1,0,0.1,0
			c0,0,0.1,0,0.1,0.1c0,0.1,0.1,0.1,0.1,0.2c0,0.1,0.1,0.2,0.1,0.3c0,0.1,0,0.2,0.1,0.3c0,0.1,0,0.1,0,0.2c0,0,0,0.1,0,0.1
			c0,0,0,0-0.1,0.1l-2.6,0.7l0.5,1.8l2.2-0.6c0,0,0.1,0,0.1,0c0,0,0.1,0,0.1,0.1c0,0,0.1,0.1,0.1,0.2c0,0.1,0.1,0.2,0.1,0.3
			c0,0.1,0,0.2,0.1,0.3c0,0.1,0,0.1,0,0.2c0,0,0,0.1,0,0.1c0,0-0.1,0-0.1,0l-2.2,0.6l0.6,2.1l2.7-0.8c0,0,0.1,0,0.1,0
			c0,0,0.1,0,0.1,0.1c0,0.1,0.1,0.1,0.1,0.2C617.6,660.2,617.6,660.3,617.6,660.4z"/>
	</g>
	<rect x="640.9" y="606.1" transform="matrix(0.4315 -0.9021 0.9021 0.4315 -178.478 945.9498)" width="40.7" height="16.9"/>
	<g>
		<path class="st0" d="M623.3,651.5c0,0.1,0.1,0.2,0.1,0.3c0,0.1,0,0.1,0,0.2c0,0,0,0.1,0,0.1c0,0,0,0.1-0.1,0.1l-1.8,0.8l2.5,5.7
			c0,0,0,0.1,0,0.1c0,0,0,0.1-0.1,0.1l-0.2,0.1l-0.3,0.2l-0.3,0.1l-0.2,0c0,0-0.1,0-0.2,0c0,0-0.1,0-0.1-0.1l-2.5-5.7l-1.8,0.8
			c0,0-0.1,0-0.1,0c0,0-0.1,0-0.1-0.1c0,0-0.1-0.1-0.1-0.2c0-0.1-0.1-0.2-0.1-0.3c0-0.1-0.1-0.2-0.1-0.3c0-0.1,0-0.1,0-0.2
			c0,0,0-0.1,0-0.1c0,0,0-0.1,0.1-0.1l5-2.1c0,0,0.1,0,0.1,0c0,0,0.1,0,0.1,0.1c0,0,0.1,0.1,0.1,0.2
			C623.2,651.3,623.2,651.4,623.3,651.5z"/>
	</g>
	<g>
		<path class="st0" d="M640.5,651.7c0,0.1,0.1,0.2,0.1,0.2c0,0.1,0,0.2-0.1,0.2c-0.1,0.1-0.2,0.2-0.3,0.3l-0.5,0.4l-0.4,0.3
			l-0.3,0.2l-0.2,0.1h-0.2c0,0-0.1,0-0.2,0l-0.2-0.1l-8-4.8c-0.1-0.1-0.3-0.2-0.4-0.3c-0.1-0.1-0.1-0.1-0.1-0.2
			c0-0.1,0.1-0.2,0.2-0.3c0.1-0.1,0.3-0.3,0.5-0.4l0.4-0.3c0.1-0.1,0.2-0.1,0.3-0.2c0.1,0,0.1,0,0.2,0l0.2,0.1l6.8,4.3l0,0l-3.1-7.4
			c0-0.1-0.1-0.1-0.1-0.2c0-0.1,0-0.1,0-0.2c0.1-0.1,0.1-0.2,0.2-0.3l0.4-0.4c0.1-0.1,0.3-0.2,0.4-0.3c0.1-0.1,0.2-0.1,0.3-0.1
			c0.1,0,0.2,0.1,0.2,0.2c0.1,0.1,0.1,0.3,0.2,0.4L640.5,651.7z"/>
	</g>
	<g>
		<path class="st0" d="M647.2,645.9c0,0,0.1,0.1,0.1,0.1c0,0.1,0,0.1,0,0.2c0,0.1-0.1,0.2-0.2,0.3c-0.1,0.1-0.2,0.3-0.3,0.4
			c-0.1,0.1-0.2,0.2-0.4,0.3c-0.1,0.1-0.2,0.1-0.3,0.2c-0.1,0-0.1,0-0.2,0c0,0-0.1,0-0.1-0.1l-6.8-6.6c0,0-0.1-0.1-0.1-0.1
			c0-0.1,0-0.1,0-0.2c0-0.1,0.1-0.2,0.2-0.3c0.1-0.1,0.2-0.2,0.3-0.4c0.1-0.1,0.2-0.2,0.4-0.3c0.1-0.1,0.2-0.1,0.3-0.2
			c0.1,0,0.1,0,0.2,0c0,0,0.1,0,0.1,0.1L647.2,645.9z"/>
	</g>
	<g>
		<path class="st0" d="M654.5,635.5c0,0,0.1,0.1,0.1,0.1c0,0.1,0,0.1,0,0.2c0,0.1-0.1,0.2-0.1,0.3c-0.1,0.1-0.2,0.3-0.3,0.5
			c-0.1,0.2-0.2,0.4-0.3,0.4c-0.1,0.1-0.1,0.2-0.2,0.2c0,0-0.1,0.1-0.2,0.1h-0.2L651,637c-0.3,0-0.5-0.1-0.7-0.1c-0.2,0-0.4,0-0.6,0
			c-0.2,0-0.3,0.1-0.5,0.2c-0.2,0.1-0.3,0.3-0.4,0.4l-0.3,0.5l3.3,2c0,0,0.1,0.1,0.1,0.1c0,0.1,0,0.1,0,0.2c0,0.1-0.1,0.2-0.1,0.3
			c-0.1,0.1-0.2,0.3-0.2,0.4c-0.1,0.1-0.2,0.3-0.3,0.4c-0.1,0.1-0.1,0.2-0.2,0.2c0,0-0.1,0.1-0.2,0.1c0,0-0.1,0-0.1,0l-7.8-4.7
			c-0.2-0.1-0.3-0.2-0.3-0.4c0-0.2,0-0.3,0.1-0.4l1.3-2.2c0.1-0.2,0.3-0.4,0.3-0.5l0.3-0.4c0.2-0.3,0.5-0.6,0.8-0.8
			c0.3-0.2,0.6-0.3,0.9-0.4c0.3-0.1,0.6-0.1,1,0c0.4,0.1,0.7,0.2,1,0.4c0.3,0.2,0.5,0.4,0.7,0.6c0.2,0.2,0.3,0.4,0.4,0.7
			c0.1,0.3,0.2,0.5,0.2,0.8c0,0.3,0,0.6-0.1,0.9c0.1-0.1,0.3-0.2,0.4-0.2c0.2-0.1,0.3-0.1,0.5-0.1c0.2,0,0.4,0,0.6,0
			c0.2,0,0.5,0,0.7,0.1l2.1,0.3l0.5,0.1L654.5,635.5z M647.4,634.2c-0.2-0.2-0.5-0.2-0.8-0.2c-0.3,0-0.6,0.2-0.8,0.4
			c-0.1,0.1-0.2,0.2-0.2,0.3c-0.1,0.1-0.2,0.3-0.3,0.5l-0.5,0.8l2.4,1.5l0.5-0.9c0.1-0.2,0.2-0.5,0.3-0.7c0-0.2,0-0.4,0-0.6
			c0-0.2-0.1-0.4-0.2-0.5C647.7,634.5,647.5,634.3,647.4,634.2L647.4,634.2z"/>
	</g>
	<g>
		<path class="st0" d="M651.5,622l0.3,0.2c0.1,0,0.1,0.1,0.2,0.2c0,0,0.1,0.1,0.1,0.1c0,0,0,0.1,0,0.1l-1,2.3l7.4,3.1
			c0,0,0.1,0.1,0.1,0.1c0,0.1,0,0.1,0,0.2c0,0.1,0,0.2-0.1,0.3c0,0.2-0.1,0.3-0.2,0.5c-0.1,0.2-0.1,0.3-0.2,0.4
			c-0.1,0.1-0.1,0.2-0.2,0.3c0,0.1-0.1,0.1-0.2,0.1c0,0-0.1,0-0.2,0l-7.4-3.1l-1,2.3c0,0,0,0.1-0.1,0.1c-0.1,0-0.1,0-0.2,0
			c-0.1,0-0.2,0-0.3,0l-0.4-0.1l-0.4-0.2c-0.1,0-0.2-0.1-0.2-0.2c0,0-0.1-0.1-0.1-0.1c0,0,0-0.1,0-0.1l2.7-6.5c0,0,0-0.1,0.1-0.1
			c0.1,0,0.1,0,0.2,0c0.1,0,0.2,0,0.3,0L651.5,622z"/>
	</g>
	<g>
		<path class="st0" d="M661,614.9c0.5,0.2,1,0.5,1.4,0.9c0.4,0.3,0.6,0.8,0.8,1.2c0.2,0.5,0.2,1,0.2,1.5c-0.1,0.6-0.2,1.2-0.5,1.7
			c-0.2,0.5-0.5,1-0.9,1.5c-0.3,0.4-0.7,0.7-1.2,0.9c-0.4,0.2-0.9,0.3-1.4,0.3c-0.6,0-1.1-0.2-1.6-0.4l-5.5-2.4c0,0-0.1-0.1-0.1-0.1
			c0-0.1,0-0.1,0-0.2c0-0.1,0-0.2,0.1-0.3c0.1-0.3,0.2-0.6,0.4-0.9c0.1-0.1,0.1-0.2,0.2-0.3c0-0.1,0.1-0.1,0.2-0.1c0,0,0.1,0,0.2,0
			l5.4,2.4c0.3,0.1,0.7,0.2,1,0.3c0.3,0,0.6,0,0.8-0.1c0.2-0.1,0.5-0.2,0.7-0.4c0.2-0.2,0.4-0.5,0.5-0.7c0.1-0.3,0.2-0.5,0.2-0.8
			c0-0.3,0-0.5-0.1-0.8c-0.1-0.2-0.3-0.5-0.5-0.7c-0.2-0.2-0.5-0.4-0.8-0.5l-5.5-2.4c0,0-0.1-0.1-0.1-0.1c0-0.1,0-0.1,0-0.2
			c0-0.1,0-0.2,0.1-0.3c0-0.2,0.1-0.3,0.2-0.5c0.1-0.1,0.1-0.3,0.2-0.4c0.1-0.1,0.1-0.2,0.2-0.3c0-0.1,0.1-0.1,0.2-0.1
			c0,0,0.1,0,0.2,0L661,614.9z"/>
	</g>
	<g>
		<path class="st0" d="M660.3,603.8l0.3,0.2c0.1,0,0.1,0.1,0.2,0.2c0,0,0.1,0.1,0.1,0.2c0,0,0,0.1,0,0.1l-1,2.3l7.3,3.3
			c0,0,0.1,0.1,0.1,0.1c0,0.1,0,0.1,0,0.2c0,0.1,0,0.2-0.1,0.3c-0.1,0.2-0.1,0.3-0.2,0.5c-0.1,0.2-0.1,0.3-0.2,0.4
			c-0.1,0.1-0.1,0.2-0.2,0.3c0,0.1-0.1,0.1-0.2,0.1c0,0-0.1,0-0.2,0l-7.4-3.4l-1,2.3c0,0-0.1,0.1-0.1,0.1c-0.1,0-0.1,0-0.2,0
			c-0.1,0-0.2,0-0.3,0l-0.4-0.1l-0.3-0.2c-0.1,0-0.1-0.1-0.2-0.2c0,0-0.1-0.1-0.1-0.1c0,0,0-0.1,0-0.1l2.9-6.4c0,0,0-0.1,0.1-0.1
			c0.1,0,0.1,0,0.2,0c0.1,0,0.2,0,0.3,0L660.3,603.8z"/>
	</g>
	<rect x="514.1" y="679.8" width="50.3" height="22.8"/>
	<g>
		<path class="st0" d="M672.3,601.5l0.3,0.2c0.1,0.1,0.1,0.1,0.2,0.2c0,0,0.1,0.1,0.1,0.2c0,0,0,0.1,0,0.1l-2.8,4.2
			c-0.1,0.1-0.2,0.2-0.4,0.3c-0.2,0-0.4,0-0.5-0.1l-7.3-4.8c-0.2-0.1-0.3-0.2-0.3-0.4c0-0.2,0-0.3,0.1-0.4l2.8-4.2
			c0,0,0.1-0.1,0.1-0.1c0.1,0,0.1,0,0.2,0c0.1,0,0.2,0,0.2,0.1l0.3,0.2l0.3,0.2c0.1,0.1,0.1,0.1,0.2,0.2c0,0,0.1,0.1,0.1,0.2
			c0,0,0,0.1,0,0.1l-2,3l2,1.3l1.7-2.5c0,0,0.1-0.1,0.1-0.1c0.1,0,0.1,0,0.2,0c0.1,0,0.2,0,0.2,0.1l0.3,0.2l0.3,0.2
			c0.1,0.1,0.1,0.1,0.2,0.2c0,0,0,0.1,0,0.2c0,0,0,0.1,0,0.1l-1.7,2.5l2.3,1.6l2-3c0,0,0.1-0.1,0.1-0.1c0.1,0,0.1,0,0.2,0
			c0.1,0,0.2,0.1,0.2,0.1L672.3,601.5z"/>
	</g>
	<g>
		<path class="st0" d="M527.9,695.7c0,0.2,0,0.3,0,0.5c0,0.1,0,0.2-0.1,0.3c0,0.1-0.1,0.1-0.1,0.2c0,0-0.1,0-0.2,0h-6.9
			c0,0-0.1,0-0.2,0c-0.1,0-0.1-0.1-0.1-0.2c0-0.1-0.1-0.2-0.1-0.3c0-0.2,0-0.3,0-0.5c0-0.2,0-0.3,0-0.5c0-0.1,0-0.2,0.1-0.3
			c0-0.1,0.1-0.1,0.1-0.2c0,0,0.1-0.1,0.2,0h2.3v-8.2l-2,1.1c-0.1,0.1-0.2,0.1-0.4,0.1c-0.1,0-0.2,0-0.2-0.1
			c-0.1-0.1-0.1-0.2-0.1-0.3c0-0.2,0-0.4,0-0.6c0-0.2,0-0.3,0-0.4c0-0.1,0-0.2,0-0.3c0-0.1,0.1-0.1,0.1-0.2l0.2-0.2l2.7-1.8l0.1-0.1
			h0.2h0.3h1.1c0.1,0,0.2,0,0.3,0c0.1,0,0.1,0,0.2,0.1c0,0,0,0.1,0,0.2v10.4h2c0.1,0,0.1,0,0.2,0c0.1,0,0.1,0.1,0.1,0.2
			c0,0.1,0.1,0.2,0.1,0.3C527.9,695.3,527.9,695.5,527.9,695.7z"/>
		<path class="st0" d="M538.1,685.2c0,0.2,0,0.4,0,0.5c0,0.1,0,0.3-0.1,0.4c0,0.1-0.1,0.2-0.1,0.3l-0.1,0.3l-4.1,9.6
			c0,0.1-0.1,0.1-0.2,0.2c-0.1,0.1-0.2,0.1-0.3,0.1c-0.1,0-0.3,0.1-0.4,0.1h-0.6c-0.3,0-0.5,0-0.8,0c-0.2,0-0.3,0-0.4-0.1
			c-0.1,0-0.1-0.1-0.2-0.2c0-0.1,0-0.2,0.1-0.3l4.4-9.8H530c-0.1,0-0.2-0.1-0.3-0.3c-0.1-0.3-0.1-0.6-0.1-0.8c0-0.2,0-0.3,0-0.5
			c0-0.1,0-0.2,0.1-0.3c0-0.1,0.1-0.1,0.1-0.2c0,0,0.1-0.1,0.2-0.1h7.5c0.1,0,0.2,0,0.3,0c0.1,0,0.1,0.1,0.2,0.2
			c0.1,0.1,0.1,0.2,0.1,0.3C538,684.7,538.1,684.9,538.1,685.2z"/>
		<path class="st0" d="M548.4,690.3c0,0.9-0.1,1.8-0.2,2.7c-0.1,0.7-0.4,1.4-0.8,2.1c-0.3,0.6-0.8,1-1.4,1.3c-1.4,0.6-2.9,0.6-4.3,0
			c-0.6-0.3-1-0.7-1.3-1.3c-0.4-0.6-0.6-1.3-0.7-2c-0.1-0.9-0.2-1.8-0.2-2.7c0-0.9,0.1-1.8,0.3-2.7c0.1-0.7,0.4-1.4,0.8-2.1
			c0.3-0.6,0.8-1,1.4-1.3c1.4-0.6,2.9-0.6,4.3,0c0.6,0.3,1,0.7,1.3,1.3c0.4,0.6,0.6,1.3,0.7,2C548.3,688.5,548.4,689.4,548.4,690.3z
			 M545.8,690.4c0-0.6,0-1.1,0-1.6c0-0.4-0.1-0.8-0.2-1.2c-0.1-0.3-0.1-0.6-0.3-0.8c-0.1-0.2-0.2-0.4-0.4-0.6
			c-0.1-0.1-0.3-0.2-0.5-0.3c-0.2-0.1-0.4-0.1-0.6-0.1c-0.3,0-0.7,0.1-0.9,0.3c-0.3,0.2-0.5,0.5-0.6,0.8c-0.2,0.4-0.3,0.9-0.3,1.4
			c-0.1,0.6-0.1,1.3-0.1,1.9c0,0.7,0,1.5,0.1,2.2c0,0.5,0.2,0.9,0.3,1.4c0.1,0.3,0.3,0.6,0.6,0.7c0.3,0.1,0.6,0.2,0.9,0.2
			c0.2,0,0.5,0,0.7-0.1c0.2-0.1,0.4-0.2,0.5-0.4c0.2-0.2,0.3-0.4,0.4-0.6c0.1-0.3,0.2-0.6,0.2-0.8c0.1-0.4,0.1-0.7,0.1-1.1
			C545.9,691.4,545.8,690.9,545.8,690.4L545.8,690.4z"/>
		<path class="st0" d="M558.2,689.8c0,0.5,0,1-0.1,1.6c0,0.5-0.1,1.1-0.3,1.6c-0.1,0.5-0.3,1-0.6,1.5c-0.3,0.5-0.6,0.9-1,1.2
			c-0.4,0.4-0.9,0.7-1.5,0.8c-0.6,0.2-1.3,0.3-2,0.3c-0.3,0-0.6,0-0.8-0.1c-0.3,0-0.5-0.1-0.8-0.1c-0.2,0-0.4-0.1-0.6-0.2
			c-0.1,0-0.2-0.1-0.3-0.2c-0.1-0.1-0.1-0.2-0.2-0.3c0-0.2,0-0.4,0-0.5c0-0.2,0-0.4,0-0.5c0-0.1,0-0.2,0.1-0.3
			c0-0.1,0.1-0.1,0.1-0.1c0,0,0.1,0,0.2,0c0.1,0,0.2,0,0.3,0.1l0.5,0.2c0.2,0.1,0.5,0.1,0.7,0.2c0.3,0,0.6,0.1,0.9,0.1
			c0.5,0,0.9-0.1,1.4-0.3c0.4-0.2,0.7-0.5,0.9-0.8c0.2-0.3,0.4-0.7,0.5-1.1c0.1-0.4,0.2-0.9,0.2-1.4c-0.3,0.2-0.7,0.4-1.1,0.5
			c-0.5,0.1-1,0.2-1.4,0.2c-0.6,0-1.2-0.1-1.7-0.3c-0.4-0.2-0.8-0.4-1.1-0.8c-0.3-0.3-0.5-0.8-0.6-1.2c-0.1-0.5-0.2-1.1-0.2-1.6
			c0-0.6,0.1-1.2,0.3-1.7c0.4-1,1.2-1.9,2.2-2.3c0.6-0.2,1.3-0.3,1.9-0.3c0.5,0,1,0.1,1.5,0.2c0.4,0.1,0.8,0.3,1.1,0.6
			c0.3,0.3,0.6,0.6,0.8,0.9c0.2,0.4,0.4,0.8,0.5,1.2c0.1,0.5,0.2,0.9,0.3,1.4C558.2,688.7,558.2,689.2,558.2,689.8z M555.7,689.4
			c0-0.6,0-1.2-0.1-1.7c-0.1-0.4-0.2-0.8-0.3-1.1c-0.1-0.3-0.3-0.5-0.6-0.6c-0.5-0.2-1.1-0.2-1.6,0c-0.2,0.1-0.4,0.3-0.5,0.5
			c-0.1,0.2-0.3,0.4-0.3,0.7c-0.1,0.3-0.1,0.6-0.1,0.9c0,0.3,0,0.6,0.1,0.9c0,0.2,0.1,0.5,0.3,0.7c0.1,0.2,0.3,0.3,0.5,0.4
			c0.2,0.1,0.5,0.1,0.8,0.1c0.4,0,0.7-0.1,1.1-0.2C555.1,689.8,555.4,689.6,555.7,689.4L555.7,689.4z"/>
	</g>
	<rect x="414.4" y="593.6" transform="matrix(0.8979 -0.4403 0.4403 0.8979 -230.2589 249.1672)" width="15" height="54.6"/>
	<g>
		<path class="st0" d="M410.6,606.9l-0.3,0.2c-0.1,0-0.2,0.1-0.3,0.1c-0.1,0-0.1,0-0.2,0c0,0-0.1,0-0.1-0.1l-2.6-3.8
			c-0.1-0.1-0.1-0.3-0.1-0.4c0-0.2,0.1-0.3,0.3-0.4l7.5-5.1c0,0,0.1,0,0.1,0c0.1,0,0.1,0,0.2,0.1c0.1,0.1,0.2,0.1,0.2,0.2
			c0.1,0.1,0.2,0.3,0.3,0.4c0.1,0.1,0.2,0.3,0.3,0.4c0,0.1,0.1,0.2,0.1,0.3c0,0.1,0,0.1,0,0.2c0,0,0,0.1-0.1,0.1l-6.7,4.5l1.8,2.6
			c0,0,0,0.1,0,0.1c0,0.1,0,0.1-0.1,0.2c-0.1,0.1-0.1,0.1-0.2,0.2L410.6,606.9z"/>
	</g>
	<g>
		<path class="st0" d="M416.9,618.6c-0.1,0.1-0.2,0.2-0.3,0.3c-0.1,0.1-0.2,0.1-0.2,0.1c-0.1,0-0.2-0.1-0.2-0.2
			c-0.1-0.1-0.2-0.3-0.3-0.5s-0.2-0.4-0.3-0.5c-0.1-0.1-0.1-0.2-0.1-0.3c0-0.1,0-0.1,0-0.2c0-0.1,0.1-0.1,0.1-0.1l1.5-1.5l-1.8-3.3
			l-2,0.3c-0.1,0-0.1,0-0.2,0c-0.1,0-0.1,0-0.2-0.1c-0.1-0.1-0.1-0.2-0.2-0.3c-0.1-0.1-0.2-0.3-0.3-0.5c-0.1-0.2-0.2-0.3-0.2-0.5
			c0-0.1,0-0.2,0-0.3c0-0.1,0.1-0.1,0.2-0.2c0.1,0,0.3-0.1,0.4-0.1l9.3-1.4c0.1,0,0.2,0,0.2,0c0.1,0,0.1,0.1,0.2,0.1
			c0.1,0.1,0.2,0.2,0.2,0.3c0.1,0.1,0.2,0.3,0.3,0.5c0.1,0.2,0.2,0.4,0.3,0.7c0.1,0.1,0.1,0.3,0.1,0.4c0,0.1,0,0.2,0,0.3
			c0,0.1-0.1,0.1-0.1,0.2L416.9,618.6z M421.3,611.1L421.3,611.1l-4.4,0.7l1.3,2.5L421.3,611.1z"/>
	</g>
	<g>
		<path class="st0" d="M424.3,627.4c-0.3,0.2-0.6,0.3-0.9,0.3c-0.3,0-0.6,0-0.9,0c-0.3-0.1-0.5-0.1-0.8-0.3
			c-0.3-0.1-0.5-0.3-0.7-0.5c-0.2-0.2-0.4-0.5-0.6-0.7c-0.2-0.3-0.4-0.6-0.6-0.9l-1.3-2.3c-0.1-0.1-0.1-0.3-0.1-0.5
			c0.1-0.2,0.2-0.3,0.4-0.4l7.7-4.1c0.2-0.1,0.3-0.1,0.5-0.1c0.1,0.1,0.3,0.2,0.3,0.3l1.2,2.2c0.3,0.5,0.5,0.9,0.6,1.5
			c0.1,0.4,0.1,0.8,0.1,1.2c0,0.4-0.2,0.7-0.4,1c-0.2,0.3-0.5,0.6-0.9,0.7c-0.2,0.1-0.4,0.2-0.6,0.2c-0.2,0-0.4,0-0.6,0
			c-0.2,0-0.4-0.1-0.6-0.2c-0.2-0.1-0.4-0.2-0.6-0.4c0.1,0.3,0.1,0.5,0.1,0.8c0,0.3-0.1,0.5-0.1,0.8c-0.1,0.3-0.2,0.5-0.4,0.7
			C424.8,627.1,424.5,627.2,424.3,627.4z M423.2,625.6c0.2-0.1,0.4-0.2,0.5-0.4c0.1-0.1,0.2-0.3,0.3-0.5c0-0.2,0-0.4,0-0.6
			c-0.1-0.3-0.2-0.6-0.3-0.8l-0.6-1.1l-2.5,1.3l0.7,1.3c0.1,0.2,0.2,0.4,0.4,0.6c0.1,0.1,0.3,0.2,0.5,0.3c0.2,0.1,0.4,0.1,0.5,0.1
			C422.9,625.7,423,625.7,423.2,625.6z M426.8,623.1c0.2-0.1,0.3-0.2,0.4-0.3c0.1-0.1,0.2-0.3,0.2-0.4c0-0.2,0-0.4,0-0.5
			c-0.1-0.2-0.2-0.5-0.3-0.7l-0.5-0.9l-2.3,1.2l0.5,1c0.1,0.2,0.2,0.4,0.4,0.6c0.1,0.1,0.3,0.2,0.5,0.3c0.2,0,0.3,0,0.5,0
			C426.4,623.2,426.6,623.2,426.8,623.1z"/>
	</g>
	<g>
		<path class="st0" d="M433.2,637.6c-0.6,0.5-1.2,0.9-1.9,1.2c-0.6,0.3-1.2,0.4-1.9,0.4c-0.6,0-1.2-0.2-1.8-0.5
			c-0.6-0.3-1.2-0.8-1.6-1.3c-0.5-0.5-0.8-1.1-1.1-1.7c-0.2-0.5-0.3-1.1-0.2-1.7c0.1-0.6,0.3-1.2,0.6-1.7c0.4-0.6,1-1.2,1.5-1.7
			c0.6-0.5,1.2-0.9,1.9-1.2c0.6-0.3,1.2-0.4,1.9-0.4c0.6,0,1.2,0.2,1.8,0.5c0.6,0.3,1.2,0.8,1.6,1.3c0.5,0.5,0.8,1.1,1.1,1.7
			c0.2,0.5,0.3,1.1,0.2,1.7c-0.1,0.6-0.3,1.2-0.6,1.7C434.3,636.6,433.8,637.2,433.2,637.6z M431.7,636.1c0.4-0.3,0.7-0.6,1-1
			c0.2-0.3,0.4-0.6,0.6-1c0.1-0.3,0.1-0.7,0-1.1c-0.1-0.4-0.3-0.8-0.6-1.1c-0.3-0.3-0.6-0.6-1-0.8c-0.4-0.1-0.7-0.2-1.1-0.1
			c-0.4,0.1-0.8,0.2-1.1,0.4c-0.4,0.2-0.8,0.5-1.1,0.8c-0.4,0.3-0.7,0.7-1,1c-0.3,0.3-0.4,0.6-0.6,1c-0.1,0.3-0.1,0.7,0,1.1
			c0.1,0.4,0.3,0.8,0.6,1.1c0.3,0.3,0.6,0.6,1,0.8c0.4,0.1,0.7,0.2,1.1,0.1c0.4-0.1,0.8-0.2,1.1-0.4
			C431,636.7,431.4,636.4,431.7,636.1z"/>
	</g>
	<rect x="566.9" y="399.8" transform="matrix(0.9904 -0.138 0.138 0.9904 -50.7041 83.7216)" width="23.4" height="15.6"/>
	<rect x="436.2" y="634.8" transform="matrix(0.6821 -0.7312 0.7312 0.6821 -332.5153 529.4426)" width="13" height="24.7"/>
	<rect x="577.6" y="386.8" transform="matrix(0.9419 -0.3358 0.3358 0.9419 -97.7478 228.5179)" width="68.7" height="20.2"/>
	<g>
		<path class="st0" d="M437.9,650.1c0,0-0.1,0.1-0.1,0.1c-0.1,0-0.1,0-0.2,0c-0.1-0.1-0.2-0.1-0.3-0.2l-0.4-0.4l-0.4-0.4
			c-0.1-0.1-0.1-0.2-0.2-0.3c0-0.1,0-0.1,0-0.2c0-0.1,0-0.1,0.1-0.2l1-2.2c0.1-0.3,0.2-0.5,0.3-0.7c0.1-0.2,0.1-0.4,0.1-0.6
			c0-0.2,0-0.4-0.1-0.5c-0.1-0.2-0.2-0.3-0.3-0.5l-0.5-0.5l-2.7,2.7c0,0-0.1,0.1-0.1,0.1c-0.1,0-0.1,0-0.2,0c-0.1,0-0.2-0.1-0.3-0.2
			c-0.3-0.2-0.5-0.4-0.7-0.7c-0.1-0.1-0.1-0.2-0.2-0.3c0-0.1,0-0.1,0-0.2c0-0.1,0-0.1,0.1-0.1l6.4-6.4c0.1-0.1,0.3-0.2,0.5-0.2
			c0.2,0,0.3,0.1,0.4,0.2l1.8,1.8l0.5,0.5l0.3,0.4c0.2,0.3,0.4,0.6,0.6,1c0.1,0.3,0.2,0.7,0.2,1c0,0.3-0.1,0.6-0.2,0.9
			c-0.2,0.3-0.4,0.6-0.6,0.9c-0.2,0.2-0.5,0.4-0.7,0.6c-0.2,0.1-0.5,0.2-0.8,0.3c-0.3,0-0.6,0-0.8,0c-0.3-0.1-0.6-0.2-0.9-0.3
			c0.1,0.2,0.1,0.3,0.1,0.5c0,0.2,0,0.4,0,0.5c0,0.2-0.1,0.4-0.1,0.6c-0.1,0.2-0.1,0.4-0.2,0.7l-0.8,2c-0.1,0.2-0.1,0.3-0.2,0.4
			C438.1,650.1,438,650.1,437.9,650.1z M440.9,643.4c0.2-0.2,0.4-0.5,0.4-0.8c0-0.3,0-0.6-0.2-0.9c-0.1-0.1-0.1-0.2-0.2-0.3
			c-0.1-0.1-0.2-0.3-0.4-0.4l-0.6-0.6l-2,2l0.7,0.7c0.2,0.2,0.4,0.3,0.6,0.5c0.2,0.1,0.4,0.2,0.6,0.2c0.2,0,0.4,0,0.5-0.1
			C440.6,643.7,440.7,643.6,440.9,643.4L440.9,643.4z"/>
	</g>
	<g>
		<path class="st0" d="M447.9,656c-0.1,0.1-0.1,0.2-0.2,0.3c-0.1,0.1-0.1,0.1-0.2,0.2c0,0-0.1,0.1-0.1,0.1c0,0-0.1,0-0.1,0l-4.3-2.6
			c-0.1-0.1-0.2-0.2-0.3-0.3c0-0.2,0-0.4,0.1-0.5l4.6-7.4c0.1-0.2,0.2-0.3,0.4-0.3c0.2,0,0.3,0,0.4,0.1l4.3,2.6c0,0,0.1,0.1,0.1,0.1
			c0,0.1,0,0.1,0,0.2c0,0.1,0,0.2-0.1,0.2c-0.1,0.1-0.1,0.2-0.2,0.3c-0.1,0.1-0.1,0.2-0.2,0.3c-0.1,0.1-0.1,0.1-0.2,0.2
			c0,0-0.1,0.1-0.1,0.1c0,0-0.1,0-0.1,0l-3-1.9l-1.3,2.1l2.6,1.6c0,0,0.1,0.1,0.1,0.1c0,0.1,0,0.1,0,0.2c0,0.1,0,0.2-0.1,0.2
			c-0.1,0.1-0.1,0.2-0.2,0.3c-0.1,0.1-0.1,0.2-0.2,0.3c0,0.1-0.1,0.1-0.2,0.2c0,0-0.1,0.1-0.1,0.1c0,0-0.1,0-0.1,0l-2.6-1.6
			l-1.5,2.4l3.1,1.9c0,0,0.1,0.1,0.1,0.1c0,0.1,0,0.1,0,0.2c0,0.1,0,0.2-0.1,0.2C448,655.8,447.9,655.9,447.9,656z"/>
	</g>
	<rect x="454.1" y="358.1" transform="matrix(0.31 -0.9507 0.9507 0.31 -58.1329 712.2088)" width="15.1" height="76.2"/>
	<g>
		<path class="st0" d="M435.9,382c0,0.2,0,0.3,0,0.5c0,0.1,0,0.2-0.1,0.3c0,0.1-0.1,0.1-0.1,0.2c0,0-0.1,0.1-0.1,0.1l-3,0.1l0.4,9.6
			c0,0.1,0,0.1,0,0.2c0,0.1-0.1,0.1-0.2,0.1c-0.1,0-0.2,0.1-0.4,0.1c-0.2,0-0.4,0-0.6,0c-0.2,0-0.4,0-0.6,0c-0.1,0-0.3,0-0.4-0.1
			c-0.1,0-0.1-0.1-0.2-0.1c0,0-0.1-0.1-0.1-0.2l-0.4-9.6l-3,0.1c-0.1,0-0.1,0-0.2,0c-0.1,0-0.1-0.1-0.1-0.2c0-0.1-0.1-0.2-0.1-0.3
			c0-0.2,0-0.3,0-0.5c0-0.2,0-0.3,0-0.5c0-0.1,0-0.2,0.1-0.3c0-0.1,0.1-0.1,0.1-0.2c0,0,0.1-0.1,0.1-0.1l8.4-0.4c0,0,0.1,0,0.1,0
			c0.1,0,0.1,0.1,0.1,0.2c0,0.1,0.1,0.2,0.1,0.3C435.9,381.7,435.9,381.8,435.9,382z"/>
	</g>
	<g>
		<path class="st0" d="M448.3,396.6c0,0.1,0,0.1-0.1,0.1c-0.1,0-0.1,0.1-0.2,0c-0.1,0-0.3,0-0.4-0.1l-0.7-0.2l-0.6-0.2
			c-0.1,0-0.2-0.1-0.3-0.2c-0.1,0-0.1-0.1-0.1-0.2c0-0.1,0-0.1,0-0.2l-0.1-2.9c0-0.3,0-0.6-0.1-0.9c0-0.2-0.1-0.5-0.2-0.7
			c-0.1-0.2-0.2-0.4-0.4-0.5c-0.2-0.2-0.4-0.3-0.6-0.3l-0.7-0.3l-1.5,4.3c0,0.1-0.1,0.1-0.1,0.1c-0.1,0-0.2,0-0.2,0
			c-0.1,0-0.2,0-0.4,0c-0.4-0.1-0.8-0.2-1.1-0.4c-0.1-0.1-0.2-0.1-0.3-0.2c-0.1,0-0.1-0.1-0.1-0.2c0-0.1,0-0.1,0-0.2l3.6-10.3
			c0.1-0.2,0.2-0.4,0.4-0.5c0.2-0.1,0.4-0.1,0.5,0l2.9,1l0.7,0.3l0.5,0.2c0.4,0.2,0.8,0.5,1.1,0.8c0.3,0.3,0.5,0.6,0.7,0.9
			c0.2,0.3,0.3,0.7,0.3,1.1c0,0.4-0.1,0.9-0.2,1.3c-0.1,0.4-0.3,0.7-0.5,1c-0.2,0.3-0.4,0.5-0.7,0.7c-0.3,0.2-0.6,0.3-0.9,0.4
			c-0.4,0.1-0.7,0.1-1.1,0.1c0.1,0.1,0.3,0.3,0.4,0.5c0.1,0.2,0.2,0.4,0.3,0.6c0.1,0.2,0.1,0.5,0.2,0.7c0,0.3,0.1,0.6,0.1,0.8
			l0.2,2.6c0,0.3,0,0.4,0,0.5C448.4,396.4,448.4,396.5,448.3,396.6z M448,387.9c0.1-0.3,0.1-0.7,0.1-1c-0.1-0.3-0.3-0.6-0.6-0.8
			c-0.1-0.1-0.2-0.1-0.4-0.2c-0.2-0.1-0.4-0.2-0.6-0.2l-1-0.4l-1.1,3.2l1.2,0.4c0.3,0.1,0.6,0.2,0.9,0.2c0.2,0,0.5,0,0.7-0.1
			c0.2-0.1,0.4-0.2,0.5-0.4C447.9,388.4,447.9,388.2,448,387.9L448,387.9z"/>
	</g>
	<g>
		<path class="st0" d="M456.3,399.3c0,0.1-0.1,0.1-0.1,0.1c-0.1,0-0.2,0-0.2,0c-0.1,0-0.2,0-0.4-0.1c-0.4-0.1-0.7-0.3-1.1-0.4
			c-0.1-0.1-0.2-0.1-0.3-0.2c-0.1,0-0.1-0.1-0.1-0.2c0-0.1,0-0.1,0-0.2l4.1-10.5c0-0.1,0.1-0.1,0.1-0.1c0.1,0,0.2,0,0.2,0
			c0.1,0,0.3,0,0.4,0.1c0.2,0,0.4,0.1,0.5,0.2c0.2,0.1,0.4,0.1,0.5,0.2c0.1,0.1,0.2,0.1,0.3,0.2c0.1,0,0.1,0.1,0.1,0.2
			c0,0.1,0,0.1,0,0.2L456.3,399.3z"/>
	</g>
	<g>
		<path class="st0" d="M472.5,404.8c0,0.1-0.1,0.2-0.2,0.3c-0.1,0.1-0.2,0.1-0.3,0.2c-0.1,0-0.2,0-0.3,0c-0.1,0-0.2,0-0.3-0.1
			l-1-0.4c-0.2-0.1-0.3-0.2-0.5-0.3c-0.1-0.1-0.2-0.2-0.3-0.4c-0.1-0.2-0.2-0.4-0.2-0.6c0-0.2-0.1-0.5-0.1-0.9l-0.7-6.3
			c0-0.4-0.1-0.8-0.1-1.2c0-0.4,0-0.8,0-1.2l0,0c-0.1,0.4-0.3,0.8-0.4,1.3s-0.3,0.8-0.5,1.3l-2.3,5.8c0,0.1-0.1,0.1-0.1,0.1
			c-0.1,0-0.1,0.1-0.2,0c-0.1,0-0.2,0-0.3,0c-0.2,0-0.4-0.1-0.5-0.2c-0.2-0.1-0.3-0.1-0.5-0.2c-0.1-0.1-0.2-0.1-0.3-0.2
			c-0.1,0-0.1-0.1-0.1-0.2c0-0.1,0-0.1,0-0.2l4-10c0.1-0.2,0.3-0.4,0.5-0.5c0.2-0.1,0.4-0.1,0.7,0l1.2,0.5c0.2,0.1,0.4,0.2,0.5,0.3
			c0.1,0.1,0.2,0.2,0.3,0.3c0.1,0.2,0.2,0.3,0.2,0.5c0,0.2,0.1,0.5,0.1,0.7l0.5,4.9c0,0.3,0,0.6,0.1,0.9c0.1,0.3,0.1,0.6,0.1,0.9
			c0,0.3,0,0.6,0.1,0.8c0,0.3,0,0.5,0,0.8l0,0c0.1-0.4,0.3-0.8,0.5-1.3s0.3-0.9,0.5-1.3l2.1-5.2c0-0.1,0.1-0.1,0.1-0.1
			c0.1,0,0.1-0.1,0.2,0c0.1,0,0.2,0,0.4,0c0.2,0.1,0.3,0.1,0.5,0.2c0.2,0.1,0.3,0.1,0.5,0.2c0.1,0,0.2,0.1,0.3,0.2
			c0,0,0.1,0.1,0.1,0.2c0,0.1,0,0.1,0,0.2L472.5,404.8z"/>
	</g>
	<rect x="492.7" y="391.5" transform="matrix(0.1002 -0.995 0.995 0.1002 46.5076 863.6605)" width="16.2" height="29.2"/>
	<g>
		<path class="st0" d="M482.1,408.9c0,0.1-0.1,0.1-0.1,0.1c-0.1,0-0.1,0.1-0.2,0.1c-0.1,0-0.3,0-0.4,0c-0.4-0.1-0.8-0.2-1.1-0.3
			c-0.1,0-0.2-0.1-0.3-0.2c-0.1,0-0.1-0.1-0.2-0.2c0-0.1,0-0.1,0-0.2l3.1-10.9c0-0.1,0.1-0.1,0.1-0.1c0.1,0,0.1-0.1,0.2-0.1
			c0.1,0,0.3,0,0.4,0c0.2,0,0.4,0.1,0.6,0.1c0.2,0.1,0.4,0.1,0.6,0.2c0.1,0,0.2,0.1,0.3,0.2c0.1,0,0.1,0.1,0.2,0.2
			c0,0.1,0,0.1,0,0.2L482.1,408.9z"/>
	</g>
	<g>
		<path class="st0" d="M499,401.8c0,0.2-0.1,0.3-0.1,0.5c0,0.1-0.1,0.2-0.1,0.3c0,0.1-0.1,0.1-0.1,0.1c-0.1,0-0.1,0-0.2,0l-3-0.5
			l-1.7,9.5c0,0.1,0,0.1-0.1,0.1c-0.1,0-0.1,0.1-0.2,0.1c-0.1,0-0.3,0-0.4,0c-0.2,0-0.4,0-0.6-0.1c-0.2,0-0.4-0.1-0.6-0.1
			c-0.1,0-0.2-0.1-0.4-0.1c-0.1,0-0.1-0.1-0.2-0.1c0-0.1,0-0.1,0-0.2l1.7-9.5l-3-0.5c-0.1,0-0.1,0-0.1-0.1c0,0-0.1-0.1-0.1-0.1
			c0-0.1,0-0.2,0-0.3c0-0.2,0-0.3,0.1-0.5c0-0.2,0.1-0.3,0.1-0.5c0-0.1,0.1-0.2,0.1-0.3c0-0.1,0.1-0.1,0.1-0.1c0.1,0,0.1,0,0.2,0
			l8.3,1.5c0.1,0,0.1,0,0.1,0.1c0,0.1,0.1,0.1,0.1,0.2c0,0.1,0,0.2,0,0.3C499.1,401.6,499,401.7,499,401.8z"/>
	</g>
	<g>
		<path class="st0" d="M508.4,409.2v4.2c0,0.1,0,0.1-0.1,0.2c-0.1,0.1-0.1,0.1-0.2,0.1c-0.1,0-0.2,0.1-0.4,0.1c-0.4,0-0.8,0-1.2,0
			c-0.1,0-0.2,0-0.4-0.1c-0.1,0-0.1-0.1-0.2-0.1c0,0-0.1-0.1,0-0.2v-4.2l-3.2-6.5c-0.1-0.2-0.2-0.3-0.2-0.5c0-0.1,0-0.2,0.1-0.3
			c0.1-0.1,0.3-0.1,0.4-0.1c0.2,0,0.5,0,0.8,0h0.7c0.1,0,0.3,0,0.4,0.1c0.1,0,0.2,0.1,0.2,0.1c0.1,0.1,0.1,0.1,0.1,0.2l1.3,2.9
			c0.1,0.3,0.3,0.6,0.4,0.9c0.1,0.3,0.3,0.6,0.4,1l0,0c0.1-0.3,0.2-0.7,0.4-1l0.4-0.9l1.3-2.9c0-0.1,0.1-0.2,0.1-0.2
			c0.1-0.1,0.1-0.1,0.2-0.1c0.1,0,0.3-0.1,0.4-0.1h0.6h0.8c0.1,0,0.3,0,0.4,0.1c0.1,0.1,0.1,0.2,0,0.3c-0.1,0.2-0.1,0.4-0.2,0.5
			L508.4,409.2z"/>
	</g>
	<g>
		<path class="st0" d="M579,409.5c0,0.6-0.1,1.1-0.4,1.6c-0.2,0.5-0.6,0.9-1,1.2c-0.4,0.3-0.9,0.5-1.4,0.7c-0.6,0.1-1.1,0.2-1.7,0.2
			c-0.4,0-0.8-0.1-1.2-0.1c-0.3-0.1-0.6-0.2-0.9-0.3c-0.2-0.1-0.5-0.2-0.7-0.3c-0.1-0.1-0.3-0.2-0.4-0.3c-0.1-0.1-0.1-0.2-0.2-0.4
			c0-0.2,0-0.4,0-0.6c0-0.2,0-0.4,0-0.5c0-0.1,0-0.2,0.1-0.3c0-0.1,0.1-0.1,0.1-0.2c0.1,0,0.1,0,0.2,0c0.1,0,0.3,0.1,0.4,0.2
			c0.2,0.1,0.4,0.2,0.6,0.4c0.3,0.1,0.6,0.3,0.9,0.4c0.4,0.1,0.8,0.2,1.2,0.2c0.3,0,0.5,0,0.8-0.1c0.2-0.1,0.4-0.2,0.6-0.3
			c0.2-0.1,0.3-0.3,0.4-0.5c0.1-0.2,0.1-0.4,0.1-0.6c0-0.2-0.1-0.5-0.2-0.7c-0.2-0.2-0.3-0.4-0.6-0.5c-0.3-0.2-0.5-0.3-0.8-0.4
			l-0.9-0.4c-0.3-0.2-0.6-0.3-0.9-0.5c-0.3-0.2-0.6-0.4-0.8-0.7c-0.2-0.3-0.4-0.6-0.5-0.9c-0.1-0.4-0.2-0.9-0.2-1.3
			c0-0.5,0.1-1,0.4-1.5c0.2-0.4,0.5-0.8,0.9-1.1c0.4-0.3,0.8-0.5,1.2-0.7c0.5-0.1,1-0.2,1.6-0.2c0.3,0,0.6,0,0.8,0.1
			c0.3,0,0.5,0.1,0.8,0.2c0.2,0.1,0.4,0.2,0.7,0.3c0.1,0.1,0.3,0.1,0.4,0.2c0,0,0.1,0.1,0.1,0.2c0,0.1,0,0.1,0,0.2
			c0,0.1,0,0.2,0,0.3c0,0.1,0,0.2,0,0.4s0,0.3,0,0.5c0,0.1,0,0.2,0,0.3c0,0.1-0.1,0.1-0.1,0.2c0,0-0.1,0.1-0.2,0
			c-0.1,0-0.2-0.1-0.3-0.1l-0.5-0.3c-0.2-0.1-0.5-0.2-0.7-0.3c-0.3-0.1-0.6-0.1-0.9-0.1c-0.2,0-0.5,0-0.7,0.1
			c-0.2,0.1-0.4,0.1-0.5,0.3c-0.1,0.1-0.2,0.2-0.3,0.4c-0.1,0.2-0.1,0.3-0.1,0.5c0,0.2,0.1,0.5,0.2,0.7c0.2,0.2,0.3,0.4,0.6,0.5
			c0.3,0.2,0.5,0.3,0.8,0.4l0.9,0.4c0.3,0.2,0.6,0.3,0.9,0.5c0.3,0.2,0.6,0.4,0.8,0.7c0.2,0.3,0.4,0.6,0.6,0.9
			C578.9,408.6,579,409.1,579,409.5z"/>
	</g>
	<g>
		<path class="st0" d="M595,407.8c0,0.1,0.1,0.3,0.1,0.4c0,0.1,0,0.2,0,0.3c0,0.1,0,0.1,0,0.2c0,0.1-0.1,0.2-0.1,0.2
			c-0.1,0.1-0.2,0.3-0.3,0.4c-0.2,0.2-0.4,0.3-0.6,0.5c-0.3,0.2-0.6,0.3-0.9,0.5c-0.4,0.2-0.7,0.3-1.1,0.4c-0.7,0.2-1.5,0.2-2.2,0.1
			c-0.7-0.1-1.3-0.3-1.9-0.7c-0.6-0.4-1.1-1-1.5-1.6c-0.5-0.8-0.8-1.6-1-2.5c-0.2-0.9-0.3-1.8-0.2-2.7c0.1-0.8,0.3-1.5,0.6-2.2
			c0.3-0.6,0.8-1.2,1.4-1.6c0.6-0.4,1.3-0.8,2.1-0.9c0.3-0.1,0.7-0.1,1-0.1c0.3,0,0.6,0,0.9,0c0.3,0,0.5,0.1,0.8,0.1
			c0.2,0,0.3,0.1,0.5,0.2c0.1,0,0.1,0.1,0.2,0.2c0,0.1,0.1,0.1,0.1,0.2c0,0.1,0.1,0.2,0.1,0.3c0,0.1,0.1,0.3,0.1,0.4
			s0.1,0.3,0.1,0.5c0,0.1,0,0.2,0,0.3c0,0.1,0,0.1-0.1,0.2c0,0-0.1,0.1-0.1,0.1c-0.1,0-0.3,0-0.4-0.1c-0.2-0.1-0.4-0.2-0.6-0.2
			c-0.3-0.1-0.6-0.1-0.9-0.2c-0.4,0-0.8,0-1.1,0.1c-0.9,0.2-1.6,0.8-1.9,1.6c-0.2,0.4-0.3,0.9-0.3,1.4c0,1.2,0.3,2.4,0.8,3.5
			c0.2,0.4,0.5,0.8,0.9,1.1c0.3,0.3,0.7,0.4,1.1,0.5c0.4,0.1,0.9,0,1.3-0.1c0.4-0.1,0.7-0.2,1-0.4c0.3-0.2,0.5-0.3,0.7-0.5
			c0.2-0.2,0.3-0.3,0.5-0.5c0.1-0.1,0.2-0.2,0.3-0.2c0,0,0.1,0,0.2,0c0.1,0,0.1,0.1,0.1,0.1c0.1,0.1,0.1,0.2,0.1,0.3
			C594.9,407.4,594.9,407.6,595,407.8z"/>
	</g>
	<g>
		<path class="st0" d="M611.3,403.8c0,0.1,0,0.1,0,0.2c0,0.1-0.1,0.1-0.1,0.2c-0.1,0.1-0.2,0.2-0.3,0.2c-0.2,0.1-0.3,0.2-0.5,0.2
			c-0.2,0.1-0.4,0.1-0.6,0.2c-0.1,0-0.2,0.1-0.4,0.1c-0.1,0-0.1,0-0.2,0c-0.1,0-0.1-0.1-0.1-0.1l-1.8-4.5l-4.2,1.6l1.8,4.5
			c0,0.1,0,0.1,0,0.2c0,0.1-0.1,0.1-0.1,0.2c-0.1,0.1-0.2,0.2-0.3,0.2c-0.3,0.2-0.7,0.3-1.1,0.4c-0.1,0-0.2,0.1-0.4,0.1
			c-0.1,0-0.2,0-0.2,0c-0.1,0-0.1-0.1-0.1-0.1l-4.2-10.5c0-0.1,0-0.1,0-0.2c0-0.1,0.1-0.1,0.1-0.2c0.1-0.1,0.2-0.2,0.3-0.2
			c0.2-0.1,0.3-0.2,0.5-0.3c0.2-0.1,0.4-0.1,0.6-0.2c0.1,0,0.2-0.1,0.4-0.1c0.1,0,0.1,0,0.2,0c0,0,0.1,0.1,0.1,0.1l1.6,4.1l4.2-1.7
			l-1.6-4.1c0-0.1,0-0.1,0-0.2c0-0.1,0.1-0.1,0.1-0.2c0.1-0.1,0.2-0.2,0.3-0.2c0.2-0.1,0.4-0.2,0.5-0.3c0.2-0.1,0.4-0.1,0.5-0.2
			c0.1,0,0.2-0.1,0.4-0.1c0.1,0,0.2,0,0.2,0c0.1,0,0.1,0.1,0.1,0.1L611.3,403.8z"/>
	</g>
	<rect x="642.7" y="378.5" transform="matrix(0.1893 -0.9819 0.9819 0.1893 146.1164 955.1989)" width="17.6" height="21.3"/>
	<g>
		<path class="st0" d="M625.8,391.7c0.4,0.8,0.7,1.7,0.8,2.6c0.1,0.8,0.1,1.5-0.1,2.3c-0.2,0.7-0.6,1.4-1.1,1.9
			c-0.6,0.6-1.3,1.1-2.1,1.5c-0.7,0.4-1.5,0.6-2.3,0.7c-0.7,0.1-1.4,0-2-0.3c-0.7-0.3-1.3-0.7-1.8-1.3c-0.6-0.7-1.1-1.5-1.5-2.3
			c-0.4-0.8-0.7-1.6-0.8-2.5c-0.1-0.8-0.1-1.6,0.1-2.3c0.2-0.7,0.6-1.4,1.1-1.9c0.6-0.6,1.3-1.1,2.1-1.5c0.7-0.4,1.5-0.6,2.3-0.7
			c0.7-0.1,1.4,0,2,0.3c0.7,0.3,1.3,0.7,1.8,1.3C624.9,390.1,625.4,390.9,625.8,391.7z M623.5,392.9c-0.2-0.5-0.5-1-0.9-1.5
			c-0.3-0.4-0.6-0.7-1-1c-0.4-0.2-0.8-0.3-1.2-0.4c-0.5,0-1,0.1-1.5,0.4c-0.5,0.2-0.9,0.6-1.2,1c-0.3,0.4-0.4,0.8-0.5,1.2
			c-0.1,0.5,0,1,0.1,1.4c0.1,0.5,0.3,1,0.5,1.5c0.3,0.5,0.6,1,0.9,1.5c0.3,0.4,0.6,0.7,1,1c0.4,0.2,0.8,0.4,1.2,0.4
			c0.5,0,1-0.1,1.5-0.4c0.5-0.2,0.9-0.5,1.2-1c0.3-0.4,0.4-0.8,0.5-1.2c0.1-0.5,0-1-0.1-1.4C624,393.9,623.8,393.4,623.5,392.9z"/>
	</g>
	<g>
		<path class="st0" d="M641.9,386.6c0.3,0.8,0.6,1.7,0.6,2.6c0.1,0.8,0,1.5-0.3,2.3c-0.3,0.7-0.7,1.3-1.2,1.8
			c-0.6,0.6-1.4,1-2.2,1.3c-0.8,0.3-1.6,0.5-2.4,0.6c-0.7,0-1.4-0.1-2-0.4c-0.7-0.3-1.2-0.8-1.7-1.4c-0.6-0.7-1-1.5-1.3-2.4
			c-0.3-0.8-0.5-1.7-0.6-2.6c-0.1-0.8,0-1.5,0.3-2.2c0.3-0.7,0.7-1.3,1.2-1.8c0.6-0.6,1.4-1,2.2-1.3c0.8-0.3,1.5-0.5,2.4-0.5
			c0.7,0,1.4,0.1,2,0.4c0.7,0.3,1.2,0.8,1.7,1.4C641.1,384.9,641.6,385.7,641.9,386.6z M639.6,387.6c-0.2-0.5-0.5-1.1-0.8-1.5
			c-0.3-0.4-0.6-0.7-1-1c-0.4-0.3-0.8-0.4-1.2-0.4c-0.5,0-1,0.1-1.5,0.3c-0.5,0.2-0.9,0.5-1.3,0.9c-0.3,0.3-0.5,0.8-0.6,1.2
			c-0.1,0.5-0.1,1,0,1.4c0.1,0.5,0.2,1,0.5,1.5c0.2,0.6,0.5,1.1,0.8,1.6c0.3,0.4,0.6,0.8,1,1.1c0.3,0.3,0.8,0.4,1.2,0.4
			c0.5,0,1-0.1,1.5-0.3c0.5-0.2,0.9-0.5,1.3-0.9c0.3-0.3,0.5-0.8,0.6-1.2c0.1-0.5,0.1-1,0-1.4C639.9,388.7,639.8,388.2,639.6,387.6
			L639.6,387.6z"/>
	</g>
	<g>
		<path class="st0" d="M655.2,393.8c0,0.2,0,0.3-0.1,0.5c0,0.1,0,0.2-0.1,0.3c0,0.1-0.1,0.1-0.1,0.2c-0.1,0-0.1,0-0.2,0l-5.5-0.4
			c-0.2,0-0.4-0.1-0.5-0.2c-0.1-0.2-0.2-0.4-0.2-0.6l0.8-10.8c0-0.1,0-0.1,0.1-0.2c0.1-0.1,0.1-0.1,0.2-0.1c0.1,0,0.3,0,0.4,0
			c0.4,0,0.8,0,1.2,0.1c0.1,0,0.2,0.1,0.4,0.1c0.1,0,0.1,0.1,0.2,0.1c0,0.1,0,0.1,0,0.2l-0.7,9.6l3.8,0.3c0.1,0,0.1,0,0.2,0.1
			c0,0,0.1,0.1,0.1,0.2c0,0.1,0,0.2,0,0.3C655.1,393.5,655.1,393.7,655.2,393.8z"/>
	</g>
</g>
</svg>
